<svg width="16" height="16" viewBox="0 0 16 16" fill="none" xmlns="http://www.w3.org/2000/svg">
<path d="M8.31994 0.959961C12.2042 0.959961 15.3599 4.11568 15.3599 7.99996C15.3599 11.8843 12.2042 15.04 8.31994 15.04C5.27822 15.04 2.68794 13.1049 1.70508 10.4H2.38511C3.33445 12.7446 5.63197 14.3948 8.32025 14.3948C11.8585 14.3948 14.7203 11.5382 14.7203 7.99996C14.7203 4.46168 11.8585 1.59996 8.32025 1.59996C5.50965 1.59996 3.12739 3.40353 2.26511 5.91996H1.59011C2.47782 3.04739 5.15868 0.959961 8.32011 0.959961H8.31994ZM6.48 4.74511L9.36 7.94511C9.46758 8.06631 9.46758 8.24891 9.36 8.37011L6.48 11.5701L6.00499 11.1451L8.405 8.48016H0.640137V7.84022H8.405L6.00499 5.17025L6.48 4.74525V4.74511Z" fill="#0C47BC"/>
</svg>
