<svg width="123" height="33" viewBox="0 0 123 33" fill="none" xmlns="http://www.w3.org/2000/svg">
<g clip-path="url(#clip0_160_99)">
<path d="M4.398 23.4551L0.678955 9.53071H3.11854L5.97601 20.2253L9.03846 9.52979L11.3126 9.53071L14.3857 20.2822L17.2561 9.53334L19.6956 9.52979L15.975 23.4526L13.1472 23.4496L10.1765 13.0511L7.2029 23.4523L4.398 23.4551Z" fill="#BE11A5"/>
<path d="M21.3784 9.53784H23.7007V23.446H21.3784V9.53784Z" fill="#BE11A5"/>
<path d="M28.6651 21.2643H34.3186V23.446H26.3909V9.53784H28.6651V21.2643Z" fill="#BE11A5"/>
<path d="M41.4621 9.55388C43.3679 9.55388 44.9535 10.2276 46.2027 11.5591C47.4679 12.8905 48.1086 14.5429 48.1086 16.4999C48.1086 18.441 47.4679 20.0933 46.2027 21.4407C44.9535 22.7722 43.3679 23.446 41.4621 23.446H36.0007V9.53784H41.4621V9.55388ZM41.4621 21.2803C42.7753 21.2803 43.8484 20.8312 44.6492 19.9328C45.482 19.0345 45.8984 17.8795 45.8984 16.5159C45.8984 15.1204 45.482 13.9974 44.6492 13.0991C43.8324 12.2007 42.7593 11.7516 41.4621 11.7516H38.291V21.2803H41.4621Z" fill="#BE11A5"/>
<path d="M60.3603 19.4728C60.3603 20.6123 59.9602 21.5593 59.1433 22.3136C58.3265 23.068 57.3654 23.4532 56.1805 23.4532H50.2385V9.53784H55.7479C56.8851 9.53784 57.8457 9.92307 58.6306 10.6453C59.4317 11.3836 59.816 12.2984 59.816 13.3898C59.816 14.6096 59.3353 15.5405 58.4067 16.2307C59.6236 16.8727 60.3603 18.0283 60.3603 19.4728ZM52.5286 11.6886V15.348H55.7636C56.7729 15.348 57.5416 14.5454 57.5416 13.5183C57.5416 12.491 56.7729 11.6886 55.7636 11.6886H52.5286ZM56.1962 21.3025C57.2532 21.3025 58.0863 20.4518 58.0863 19.3604C58.0863 18.269 57.2532 17.4184 56.1962 17.4184H52.5286V21.3185H56.1962V21.3025Z" fill="#BE11A5"/>
<path d="M64.7964 21.2704H70.9466V23.4532H62.5225V9.53784H70.8506V11.7206H64.7964V15.3319H70.3541V17.4986H64.7964V21.2704Z" fill="#BE11A5"/>
<path d="M80.9085 23.4532L77.9613 18.3814H75.2705V23.4532H72.9966V9.53784H78.5538C79.8032 9.53784 80.8602 9.97117 81.7091 10.8539C82.5737 11.7046 83.0225 12.7639 83.0225 14.0158C83.0225 15.7813 81.9173 17.4023 80.2678 18.0443L83.4226 23.4532H80.9085ZM75.2705 11.6885V16.343H78.538C79.755 16.343 80.716 15.3158 80.716 14.0158C80.716 12.7318 79.7392 11.6885 78.538 11.6885H75.2705Z" fill="#BE11A5"/>
<path d="M93.0643 23.4531L90.1334 18.3786H87.4427V23.4531H85.1687V9.53052H90.7259C91.9753 9.53052 93.0323 9.96411 93.8812 10.8473C94.7458 11.6984 95.1946 12.7582 95.1946 14.0108C95.1946 15.7772 94.0894 17.3991 92.4399 18.0414L95.5947 23.4531H93.0643ZM87.4427 11.6823V16.3392H90.7102C91.9271 16.3392 92.8882 15.3115 92.8882 14.0108C92.8882 12.7262 91.9114 11.6823 90.7102 11.6823H87.4427Z" fill="#BE11A5"/>
<path d="M97.2603 9.53223H99.5347V23.4532H97.2603V9.53223Z" fill="#BE11A5"/>
<path d="M104.5 21.2704H110.65V23.4531H102.225V9.53784H110.553V11.7206H104.5V15.3319H110.057V17.4986H104.5V21.2704Z" fill="#BE11A5"/>
<path d="M112.235 20.2858L114.205 19.1308C114.765 20.7029 115.903 21.4729 117.648 21.4729C119.378 21.4729 120.227 20.735 120.227 19.6442C120.227 19.0667 119.987 18.6496 119.538 18.3608C119.089 18.0561 118.257 17.7191 117.072 17.3663C115.742 16.9652 115.086 16.7085 114.157 16.0989C113.26 15.4573 112.811 14.5429 112.811 13.2917C112.811 12.0564 113.244 11.094 114.125 10.3721C114.99 9.63414 116.047 9.28125 117.28 9.28125C119.506 9.28125 121.22 10.4362 122.117 12.3452L120.195 13.4521C119.618 12.1687 118.641 11.511 117.28 11.511C115.95 11.511 115.102 12.1848 115.102 13.2435C115.102 14.2702 115.774 14.7515 117.905 15.4091C118.433 15.5856 118.817 15.714 119.057 15.8102C119.314 15.8904 119.65 16.0348 120.083 16.2113C120.531 16.3877 120.884 16.5963 121.092 16.7727C121.828 17.3502 122.613 18.2966 122.517 19.6281C122.517 20.8794 122.069 21.89 121.156 22.6279C120.259 23.3659 119.074 23.7188 117.6 23.7188C114.91 23.7027 112.956 22.4194 112.235 20.2858Z" fill="#BE11A5"/>
</g>
<defs>
<clipPath id="clip0_160_99">
<rect width="121.846" height="33" fill="white" transform="translate(0.615479)"/>
</clipPath>
</defs>
</svg>
