<svg width="87" height="27" viewBox="0 0 87 27" fill="none" xmlns="http://www.w3.org/2000/svg">
<g clip-path="url(#clip0_160_114)">
<path d="M10.1268 20.1824C6.79639 20.5874 4.00967 17.8199 4.41748 14.5799C4.68936 12.3524 6.52451 10.5299 8.76746 10.2599C12.0979 9.85491 14.8847 12.6224 14.4768 15.8624C14.205 18.0899 12.4378 19.9124 10.1268 20.1824ZM10.4667 5.87244C4.41748 5.26494 -0.544239 10.2599 0.0674794 16.1999C0.543261 20.5874 4.14561 24.1649 8.56356 24.5699C14.5448 25.1774 19.5745 20.1824 18.9628 14.2424C18.487 9.85491 14.8847 6.27744 10.4667 5.87244Z" fill="#0054FF"/>
<path d="M23.9927 6.20996C22.6333 6.20996 21.5458 7.42499 21.8177 8.84249C22.0216 9.85499 23.0411 10.5975 24.0606 10.5975H30.2458L20.6622 23.22C20.3224 23.625 20.6622 24.2325 21.138 24.2325H36.227C37.3145 24.2325 38.2661 23.4899 38.47 22.4774C38.7419 21.0599 37.6544 19.845 36.295 19.845H28.7505L38.3341 7.22249C38.6739 6.81749 38.3341 6.20996 37.7903 6.20996H23.9927Z" fill="#0054FF"/>
<path d="M84.2812 6.14259C83.2617 6.34509 82.582 7.29005 82.582 8.37005V15.6601L70.5515 6.21009C70.1437 5.87259 69.532 6.21009 69.532 6.68259V21.8026C69.532 22.8151 70.2117 23.7601 71.2992 24.0301C72.7265 24.3001 74.0179 23.2201 74.0179 21.8701V14.5126L86.0484 23.9626C86.4562 24.3001 87.0679 23.9626 87.0679 23.4901V8.30255C86.9999 6.95255 85.7085 5.87258 84.2812 6.14259Z" fill="#0054FF"/>
<path d="M53.0833 5.73755C45.7426 5.73755 39.8293 9.99005 39.8293 15.1875C39.8293 20.385 45.8106 24.57 53.1512 24.57C60.4918 24.57 66.4051 20.3175 66.4051 15.12C66.3372 9.92255 60.4239 5.73755 53.0833 5.73755ZM53.0833 10.125C58.1809 10.125 61.9192 12.7575 61.9192 15.12C61.9192 17.4825 58.1129 20.1825 53.0833 20.1825C47.9856 20.1825 44.2473 17.55 44.2473 15.1875C44.2473 12.7575 48.0536 10.125 53.0833 10.125Z" fill="#0054FF"/>
<path d="M61.7157 16.1326C60.8321 18.1576 57.4336 20.1151 53.0836 20.1151C48.7336 20.1151 45.3352 18.1576 44.4516 16.1326H39.8977C40.5774 20.8576 46.2868 24.5701 53.1516 24.5026C60.0165 24.5026 65.5899 20.7901 66.3376 16.1326H61.7157Z" fill="#0054FF"/>
</g>
<defs>
<clipPath id="clip0_160_114">
<rect width="87" height="27" fill="white"/>
</clipPath>
</defs>
</svg>
