<svg width="16" height="20" viewBox="0 0 16 20" fill="none" xmlns="http://www.w3.org/2000/svg">
<path d="M8.00002 5.63647C6.8427 5.63647 5.73279 6.0962 4.91447 6.91448C4.09616 7.73275 3.63647 8.8427 3.63647 10C3.63647 11.1573 4.0962 12.2672 4.91447 13.0856C5.73275 13.9039 6.8427 14.3636 8.00002 14.3636C9.15733 14.3636 10.2672 13.9038 11.0856 13.0856C11.9039 12.2673 12.3636 11.1573 12.3636 10C12.3624 8.84305 11.9022 7.73395 11.0841 6.91598C10.2661 6.09783 9.15699 5.63763 8.00002 5.63647ZM8.00002 13.2728V13.2726C7.13199 13.2726 6.29962 12.9277 5.6859 12.314C5.07219 11.7003 4.72732 10.8679 4.72732 9.99989C4.72732 9.13187 5.07218 8.29949 5.6859 7.68578C6.29962 7.07206 7.13199 6.72719 8.00002 6.72719C8.86804 6.72719 9.70042 7.07206 10.3141 7.68578C10.9278 8.29949 11.2727 9.13187 11.2727 9.99989C11.2717 10.8676 10.9267 11.6994 10.3131 12.313C9.69952 12.9266 8.86766 13.2716 7.99997 13.2726L8.00002 13.2728Z" fill="#9297A4"/>
<path d="M8.00003 9.45459C7.69886 9.45459 7.45459 9.69884 7.45459 10V11.6365C7.45459 11.9377 7.69884 12.1819 8.00003 12.1819C8.30122 12.1819 8.54547 11.9377 8.54547 11.6365V10C8.54547 9.85539 8.48805 9.71661 8.38576 9.61432C8.28347 9.51203 8.14469 9.45461 8.00005 9.45461L8.00003 9.45459Z" fill="#9297A4"/>
<path d="M8.38748 7.9763C8.36003 7.95454 8.33291 7.93261 8.30579 7.91084C8.27532 7.89008 8.24234 7.87351 8.20752 7.86146C8.17654 7.84589 8.1434 7.83484 8.10924 7.82898C8.00294 7.80672 7.89228 7.8181 7.79284 7.86146C7.72604 7.88791 7.6651 7.92692 7.61304 7.9763C7.4021 8.19143 7.4021 8.5358 7.61304 8.7509C7.6651 8.80012 7.72604 8.83896 7.79284 8.86541C7.85846 8.89337 7.92894 8.90827 8.00026 8.90911C8.03675 8.9081 8.07325 8.90442 8.10924 8.89806C8.1434 8.89203 8.17654 8.88098 8.20752 8.86541C8.24234 8.85336 8.27532 8.83679 8.30579 8.81603C8.33291 8.79443 8.3602 8.77267 8.38748 8.75074V8.75091C8.48709 8.64628 8.54351 8.50799 8.54569 8.36352C8.54753 8.29203 8.53263 8.22088 8.50199 8.1561C8.47437 8.09014 8.43553 8.02937 8.38748 7.9763V7.9763Z" fill="#9297A4"/>
<path d="M15.6294 4.51138C15.6264 4.46366 15.617 4.41646 15.6015 4.37126C15.5963 4.35385 15.5901 4.3366 15.5832 4.31986C15.5575 4.2606 15.5213 4.20653 15.4764 4.16015L11.6583 0.342006V0.341839C11.6116 0.296805 11.5573 0.260479 11.4977 0.234696C11.4817 0.22733 11.4654 0.222977 11.4487 0.217118C11.4021 0.201046 11.3536 0.191337 11.3044 0.188491C11.2935 0.187821 11.2836 0.182129 11.2726 0.182129H0.908852C0.607515 0.182129 0.363281 0.426213 0.363281 0.727572V19.2731C0.363281 19.4178 0.420873 19.5566 0.52316 19.6589C0.625447 19.7611 0.764231 19.8186 0.908874 19.8186H15.0907C15.2354 19.8186 15.3742 19.7612 15.4764 19.6589C15.5787 19.5566 15.6363 19.4178 15.6363 19.2731V4.54571C15.6363 4.53383 15.6301 4.52328 15.6295 4.5114L15.6294 4.51138ZM13.774 4.00026H11.818V2.04422L13.774 4.00026ZM1.45431 18.7277V1.27326H10.7269V4.54596C10.7269 4.69061 10.7843 4.82939 10.8866 4.93168C10.9889 5.03396 11.1277 5.09139 11.2723 5.09139H14.545V18.7277L1.45431 18.7277Z" fill="#9297A4"/>
</svg>
