<svg width="32" height="32" viewBox="0 0 32 32" fill="none" xmlns="http://www.w3.org/2000/svg">
<path d="M13.6973 21.7103C13.7028 23.1333 14.8609 24.2826 16.2838 24.2769C17.7067 24.2712 18.856 23.1135 18.8506 21.6905C18.8451 20.2676 17.6871 19.1183 16.264 19.1236C14.841 19.129 13.6919 20.2872 13.6973 21.7103Z" fill="url(#paint0_linear_295_47)"/>
<path d="M5.43128 18.2633C6.31941 16.4337 7.20876 15.2965 10.6003 15.2965H11.2944C13.4969 15.2965 14.6412 15.7775 15.4181 16.6129C15.4589 16.5229 15.4969 16.4418 15.5304 16.3734C16.4266 14.5465 17.3067 13.402 20.7057 13.402H21.3998C24.7912 13.402 25.6807 14.5388 26.5688 16.3687C27.0956 17.4447 28.5722 21.2965 29.6953 24.2763C31.1577 21.8614 32 19.0293 32 16C32 7.16346 24.8365 0 16 0C7.16347 0 0 7.16346 0 16C0 19.3279 1.01675 22.4181 2.75552 24.9782C3.79426 22.2406 4.97266 19.2 5.43128 18.2633ZM21.0524 5.33846C23.0682 5.33846 24.6972 6.96879 24.6972 8.97631C24.6972 10.9838 23.0643 12.611 21.0524 12.611C19.0423 12.611 17.4082 10.9834 17.4082 8.97631C17.4082 6.96612 19.0423 5.33846 21.0524 5.33846ZM10.9476 7.73275C12.8195 7.73275 14.3413 9.24885 14.3413 11.1209C14.3413 12.9899 12.8195 14.5058 10.9476 14.5058C9.07337 14.5058 7.55348 12.9899 7.55348 11.1209C7.55348 9.25197 9.07047 7.73275 10.9476 7.73275Z" fill="url(#paint1_linear_295_47)"/>
<path d="M19.0236 31.4008C19.0236 31.4008 19.0069 27.8944 20.7367 26.5904L23.7872 24.2161C23.8742 24.1485 23.9469 24.0643 24.0012 23.9684C24.0555 23.8725 24.0903 23.7668 24.1036 23.6574C24.1168 23.548 24.1084 23.4371 24.0786 23.331C24.0489 23.2249 23.9984 23.1257 23.9302 23.0392C23.6833 22.7239 23.2364 22.6452 22.8769 22.8213L20.5392 23.9654C19.2113 24.6155 17.7522 24.9535 16.2736 24.9536H16.2725C14.7939 24.9536 13.3349 24.6156 12.0069 23.9654L9.66943 22.821C9.30976 22.6448 8.86285 22.7236 8.61597 23.0389C8.54775 23.1254 8.49731 23.2246 8.46756 23.3306C8.43781 23.4367 8.42934 23.5477 8.44262 23.6571C8.4559 23.7664 8.49068 23.8721 8.54495 23.968C8.59923 24.0639 8.67193 24.1481 8.75888 24.2158L11.8095 26.5904C13.5392 27.8944 13.5227 31.4008 13.5227 31.4008V31.808C15.3482 32.0928 17.2093 32.0598 19.0236 31.7104V31.4008Z" fill="url(#paint2_linear_295_47)"/>
<path d="M25.344 20.4318L25.2803 29.0292C26.3966 28.2334 27.4067 27.2983 28.286 26.2465L25.344 20.4318Z" fill="url(#paint3_linear_295_47)"/>
<path d="M7.42655 20.8043L4.3252 26.934C4.89232 27.539 5.50534 28.0992 6.15879 28.6097L7.42655 20.8043Z" fill="url(#paint4_linear_295_47)"/>
<defs>
<linearGradient id="paint0_linear_295_47" x1="12.2372" y1="18.1788" x2="16.7893" y2="23.6757" gradientUnits="userSpaceOnUse">
<stop stop-color="#E0232A"/>
<stop offset="1" stop-color="#FF7A7D"/>
</linearGradient>
<linearGradient id="paint1_linear_295_47" x1="-9.06667" y1="-4.5794" x2="11.411" y2="27.0993" gradientUnits="userSpaceOnUse">
<stop stop-color="#E0232A"/>
<stop offset="1" stop-color="#FF7A7D"/>
</linearGradient>
<linearGradient id="paint2_linear_295_47" x1="3.9958" y1="21.0293" x2="10.5815" y2="34.4738" gradientUnits="userSpaceOnUse">
<stop stop-color="#E0232A"/>
<stop offset="1" stop-color="#FF7A7D"/>
</linearGradient>
<linearGradient id="paint3_linear_295_47" x1="24.4286" y1="18.8556" x2="29.968" y2="21.1941" gradientUnits="userSpaceOnUse">
<stop stop-color="#E0232A"/>
<stop offset="1" stop-color="#FF7A7D"/>
</linearGradient>
<linearGradient id="paint4_linear_295_47" x1="3.44648" y1="19.3733" x2="8.92056" y2="21.9997" gradientUnits="userSpaceOnUse">
<stop stop-color="#E0232A"/>
<stop offset="1" stop-color="#FF7A7D"/>
</linearGradient>
</defs>
</svg>
