<svg width="765" height="762" viewBox="0 0 765 762" fill="none" xmlns="http://www.w3.org/2000/svg">
<path opacity="0.5" fill-rule="evenodd" clip-rule="evenodd" d="M558.461 216.93C618.431 265.858 698.217 307.842 705.072 385.43C712.154 465.58 679.857 492.923 617.627 545.02C561.644 591.888 502.19 556.704 429.797 560.867C353.643 565.246 349.63 562.265 261.075 537.563C186.036 506.801 77.9681 481.614 77.7097 399.871C77.4525 318.482 110.868 237.92 172.064 183.348C229.614 132.028 309.788 118.419 385.909 125.034C453.727 130.928 506.025 174.149 558.461 216.93Z" fill="#FFD2D0" fill-opacity="0.2"/>
<path opacity="0.5" fill-rule="evenodd" clip-rule="evenodd" d="M435.124 289.443C477.203 323.81 533.139 353.36 538.1 407.672C543.226 463.779 502.429 514.256 458.98 550.584C419.892 583.266 368.779 588.843 318.115 591.605C264.819 594.51 207.938 599.693 166.448 566.529C121.966 530.973 99.3539 473.668 99.0013 416.461C98.6503 359.502 121.871 303.192 164.591 265.13C204.766 229.335 260.855 219.979 314.152 224.769C361.634 229.036 398.331 259.394 435.124 289.443Z" fill="#FFD397" fill-opacity="0.3"/>
<path opacity="0.5" fill-rule="evenodd" clip-rule="evenodd" d="M579.749 211.208C621.596 245.35 677.27 274.646 682.054 328.786C686.995 384.715 646.173 435.168 602.75 471.52C563.685 504.224 512.712 509.938 462.197 512.843C409.057 515.899 352.336 521.238 311.073 488.294C266.835 452.974 244.464 395.903 244.283 338.864C244.104 282.071 267.421 225.855 310.123 187.775C350.281 151.964 406.226 142.468 459.343 147.084C506.666 151.197 543.159 181.356 579.749 211.208Z" fill="#BFCDE0" fill-opacity="0.3"/>
<path fill-rule="evenodd" clip-rule="evenodd" d="M390.102 264.115C350.993 260.795 307.12 248.058 277.232 273.596C246.357 299.979 242.131 346.43 246.396 386.908C250.233 423.323 273.939 451.77 298.827 478.54C325.008 506.7 351.904 537.829 390.102 541.475C431.054 545.384 471.602 527.131 500.555 497.794C529.382 468.583 545.658 427.916 542.643 386.908C539.808 348.343 515.422 315.456 485.37 291.266C458.597 269.714 424.297 267.017 390.102 264.115Z" fill="#F1F4DF" fill-opacity="0.75"/>
</svg>
