<svg width="38" height="38" viewBox="0 0 38 38" fill="none" xmlns="http://www.w3.org/2000/svg">
<g clip-path="url(#clip0_295_54)">
<path d="M37.9999 18.9131C38.0478 29.4065 29.58 37.9518 19.0866 37.9997C8.59317 38.0475 0.0481949 29.58 0.000202998 19.0867C-0.0477889 8.59344 8.41982 0.048134 18.9131 0.00014196C29.4063 -0.0478501 37.9519 8.41994 37.9999 18.9131Z" fill="#42A844"/>
<path d="M31.6914 31.6914C38.7006 24.6822 38.7006 13.3178 31.6914 6.30856C24.6821 -0.700733 13.3178 -0.700734 6.30858 6.30856C-0.700681 13.3178 -0.700681 24.6822 6.30858 31.6914C13.3178 38.7007 24.6821 38.7007 31.6914 31.6914Z" fill="white"/>
<path d="M31.9126 18.941C31.9452 26.0724 26.1899 31.8797 19.0593 31.9123C11.9286 31.9448 6.12058 26.1903 6.08803 19.0589C6.05548 11.9275 11.8107 6.11981 18.9414 6.08727C26.072 6.05472 31.8801 11.8097 31.9126 18.941Z" fill="#42A844"/>
<path d="M27.7155 27.7154C32.5289 22.902 32.5289 15.098 27.7155 10.2846C22.9021 5.47118 15.0981 5.47118 10.2847 10.2846C5.47135 15.098 5.47135 22.902 10.2847 27.7154C15.0981 32.5288 22.9021 32.5288 27.7155 27.7154Z" fill="white"/>
<path d="M27.074 27.0743C31.5332 22.6151 31.5332 15.3852 27.074 10.926C22.6148 6.46672 15.3849 6.46672 10.9257 10.926C6.46648 15.3852 6.46648 22.6151 10.9257 27.0743C15.3849 31.5336 22.6148 31.5336 27.074 27.0743Z" fill="#42A844"/>
<path d="M8.00439 10.0687L7.68919 10.5228L6.86985 9.95481L6.29213 10.7884L7.11162 11.3564L6.79748 11.8097L4.78516 10.4154L5.0993 9.96208L5.90168 10.5185L6.4794 9.68488L5.67702 9.1285L5.99222 8.67432L8.00439 10.0687Z" fill="#42A844"/>
<path d="M7.92849 6.61685L8.49501 8.29127L9.11572 8.90155L8.72922 9.29517L8.11547 8.69217L6.43848 8.13352L6.8807 7.68373L7.80859 8.04253C7.82555 8.0497 7.8861 8.08301 7.99026 8.14245L7.99496 8.13746C7.95522 8.08379 7.9217 8.02579 7.89504 7.96457L7.51973 7.03349L7.92849 6.61685Z" fill="#42A844"/>
<path d="M9.83626 7.1584L10.3413 7.83408L9.89954 8.16442L8.43359 6.20326L9.12562 5.68594C9.61966 5.31654 10.0224 5.34016 10.3339 5.75679C10.4812 5.95371 10.5295 6.16601 10.4786 6.39371C10.4278 6.62141 10.2838 6.82397 10.0468 7.00141L9.83626 7.1584ZM9.12879 6.21219L9.58585 6.82352L9.7595 6.69362C9.99467 6.5178 10.035 6.32684 9.88062 6.12075C9.72993 5.91889 9.53705 5.90607 9.30199 6.08229L9.12879 6.21219Z" fill="#42A844"/>
<path d="M12.5794 6.46547C12.267 6.62474 11.9607 6.65289 11.6603 6.54995C11.3599 6.447 11.1265 6.23232 10.96 5.90591C10.784 5.56124 10.7416 5.23145 10.8328 4.91655C10.9239 4.60165 11.1343 4.36018 11.4638 4.19213C11.7751 4.03327 12.0788 4.00677 12.3749 4.11265C12.671 4.21852 12.9042 4.43819 13.0743 4.77167C13.2492 5.11483 13.2905 5.44194 13.1982 5.75301C13.1058 6.06407 12.8996 6.30156 12.5794 6.46547ZM11.6659 4.62194C11.4935 4.70985 11.3896 4.84429 11.354 5.02525C11.3185 5.20622 11.3551 5.40303 11.4638 5.61569C11.574 5.83168 11.7119 5.97667 11.8774 6.05065C12.0429 6.12463 12.2078 6.11958 12.372 6.03551C12.5415 5.94901 12.6447 5.81937 12.6816 5.64658C12.7186 5.47378 12.6817 5.27884 12.5711 5.06174C12.4559 4.83566 12.3181 4.68426 12.1575 4.60756C11.9969 4.53085 11.833 4.53564 11.6659 4.62194Z" fill="#42A844"/>
<path d="M16.0386 5.13713L15.4633 5.31214L15.1382 4.84176L14.3056 5.09519L14.2992 5.6664L13.7275 5.84035L13.8674 3.23864L14.4931 3.04834L16.0386 5.13713ZM14.8943 4.47311L14.4032 3.76232C14.362 3.69981 14.3274 3.63319 14.3 3.56353L14.2869 3.56762C14.3025 3.63871 14.3096 3.71137 14.3083 3.78412L14.295 4.65554L14.8943 4.47311Z" fill="#42A844"/>
<path d="M17.7926 4.90049L16.3501 5.11244L15.9941 2.69013L16.5392 2.60989L16.83 4.58968L17.727 4.45797L17.7926 4.90049Z" fill="#42A844"/>
<path d="M19.581 4.85901L18.1232 4.88763L18.0752 2.43973L18.6266 2.42899L18.6658 4.42951L19.5722 4.4118L19.581 4.85901Z" fill="#42A844"/>
<path d="M21.3715 5.04842L19.9121 4.88719L20.181 2.45352L21.5844 2.6087L21.5357 3.05441L20.6798 2.95918L20.6193 3.50057L21.4151 3.58853L21.3667 4.03408L20.5708 3.94612L20.5094 4.5028L21.4206 4.60347L21.3715 5.04842Z" fill="#42A844"/>
<path d="M23.7467 5.64066L23.1342 5.47912L22.9268 4.77287C22.9115 4.71927 22.896 4.67103 22.8801 4.62813C22.8661 4.58882 22.8486 4.55083 22.8279 4.51459C22.8108 4.48426 22.7888 4.45694 22.7628 4.43374C22.7379 4.41243 22.7084 4.39714 22.6767 4.38908L22.533 4.35108L22.294 5.25748L21.7607 5.11684L22.3851 2.74948L23.2311 2.97233C23.8056 3.12373 24.0362 3.4141 23.923 3.84346C23.9033 3.92153 23.87 3.99553 23.8247 4.06207C23.782 4.12431 23.7288 4.1787 23.6675 4.22285C23.6049 4.2676 23.5354 4.30176 23.4617 4.32398C23.3825 4.34794 23.3004 4.36073 23.2178 4.36198L23.2159 4.36864C23.2498 4.39024 23.2797 4.41754 23.3042 4.44934C23.3317 4.4844 23.3561 4.52184 23.377 4.56122C23.3997 4.60327 23.4199 4.64659 23.4376 4.69096C23.4556 4.73638 23.4715 4.78029 23.485 4.82268L23.7467 5.64066ZM22.8129 3.28966L22.6393 3.94837L22.8703 4.00893C22.9848 4.03921 23.0854 4.03048 23.1722 3.98274C23.2147 3.96001 23.252 3.92856 23.2815 3.89045C23.311 3.85233 23.3322 3.80841 23.3436 3.76155C23.3981 3.55465 23.3015 3.41839 23.054 3.35279L22.8129 3.28966Z" fill="#42A844"/>
<path d="M25.8265 6.40429C25.5521 6.43144 25.253 6.37179 24.9293 6.22534C24.5705 6.06304 24.3326 5.83595 24.2155 5.54406C24.0984 5.25218 24.1186 4.93182 24.2761 4.58301C24.4346 4.23258 24.6769 3.99797 25.0028 3.87918C25.3287 3.76039 25.6794 3.78592 26.0549 3.95579C26.2912 4.06287 26.4849 4.18984 26.636 4.33669L26.4228 4.80798C26.2957 4.63065 26.1076 4.48572 25.8587 4.37318C25.6502 4.27881 25.4498 4.26968 25.2574 4.34578C25.065 4.42188 24.9177 4.57292 24.8155 4.7989C24.7119 5.02811 24.6906 5.23209 24.7515 5.41084C24.8123 5.58958 24.9429 5.72417 25.1431 5.81461C25.2634 5.86911 25.3666 5.89515 25.4527 5.89273L25.6495 5.45716L25.2031 5.2552L25.3847 4.85386L26.3337 5.28291L25.8265 6.40429Z" fill="#42A844"/>
<path d="M27.3962 7.61062L26.165 6.81035L27.4994 4.7576L28.6833 5.52714L28.439 5.90365L27.7176 5.43433L27.4207 5.89109L28.0921 6.32741L27.8485 6.70286L27.1773 6.26639L26.872 6.73572L27.6407 7.23532L27.3962 7.61062Z" fill="#42A844"/>
<path d="M29.3507 9.32002L28.9398 8.94456L29.2323 7.12782C29.2434 7.04941 29.2589 6.97167 29.2787 6.89498L29.2735 6.89028C29.2218 6.96033 29.1361 7.06091 29.0161 7.19201L28.1088 8.18531L27.7246 7.83408L29.3759 6.02643L29.8149 6.42717L29.5273 8.18335C29.5147 8.26288 29.5001 8.33969 29.4832 8.41377L29.4882 8.41831C29.5199 8.37017 29.5922 8.28438 29.705 8.16094L30.6182 7.16174L31.0026 7.51297L29.3507 9.32002Z" fill="#42A844"/>
<path d="M32.0644 8.78467L31.7359 9.05718L31.6051 8.89957L30.3779 9.9177L30.5087 10.0755L30.1802 10.348L29.5664 9.60825L29.8949 9.33574L30.0257 9.49349L31.2529 8.47522L31.1221 8.31761L31.4506 8.0451L32.0644 8.78467Z" fill="#42A844"/>
<path d="M31.4326 12.0457C31.2629 11.9428 31.0997 11.7705 30.9428 11.529C30.7384 11.214 30.6703 10.9062 30.7384 10.6055C30.8066 10.3048 30.9948 10.0545 31.3033 9.85442C31.6318 9.64126 31.964 9.56985 32.2999 9.6402C32.6358 9.71054 32.9088 9.90736 33.119 10.2306C33.249 10.4311 33.3333 10.6165 33.3721 10.7869L32.9265 11.0759C32.9194 10.8851 32.8588 10.7019 32.7449 10.5262C32.6197 10.3333 32.4582 10.2172 32.2604 10.1779C32.0626 10.1387 31.86 10.186 31.6526 10.32C31.4539 10.4489 31.3319 10.6075 31.2863 10.7956C31.2408 10.9838 31.2795 11.1724 31.4023 11.3616C31.5135 11.5367 31.6701 11.6784 31.8554 11.7717L31.4326 12.0457Z" fill="#42A844"/>
<path d="M6.65244 30.3967L6.30424 29.9668L7.07877 29.339L6.44019 28.5518L5.66566 29.1796L5.31836 28.7511L7.22047 27.2097L7.56777 27.6381L6.80898 28.2529L7.44756 29.0402L8.2062 28.4254L8.5544 28.855L6.65244 30.3967Z" fill="#42A844"/>
<path d="M10.2338 30.3782L8.58681 31.0195L8.005 31.6675L7.59473 31.2991L8.17002 30.6587L8.65221 28.9583L9.12153 29.3791L8.80361 30.3223C8.79725 30.3396 8.76697 30.4016 8.71277 30.5085L8.71777 30.5132C8.76958 30.4709 8.826 30.4346 8.88596 30.405L9.79932 29.988L10.2338 30.3782Z" fill="#42A844"/>
<path d="M9.95042 32.1106L9.48216 32.8122L9.02344 32.506L10.3827 30.4695L11.1012 30.9491C11.6143 31.2916 11.7265 31.6791 11.4377 32.1118C11.3013 32.3163 11.1172 32.4324 10.8856 32.46C10.654 32.4877 10.4151 32.4196 10.169 32.2558L9.95042 32.1106ZM10.6063 31.1279L10.1824 31.7627L10.3627 31.8831C10.6069 32.0461 10.8004 32.0206 10.9433 31.8066C11.0828 31.5974 11.0305 31.4113 10.7863 31.2483L10.6063 31.1279Z" fill="#42A844"/>
<path d="M11.9629 34.2692C11.6442 34.123 11.4322 33.9 11.3271 33.6005C11.2219 33.3009 11.2456 32.9847 11.3982 32.6517C11.5597 32.2999 11.7921 32.0621 12.0955 31.9385C12.3989 31.8148 12.7188 31.83 13.0551 31.9839C13.3727 32.1297 13.5818 32.3518 13.6824 32.65C13.7831 32.9483 13.7553 33.2674 13.599 33.6073C13.4382 33.9566 13.2072 34.1918 12.9058 34.313C12.6044 34.4341 12.2901 34.4195 11.9629 34.2692ZM12.8427 32.4093C12.6667 32.3286 12.4968 32.3304 12.3329 32.4149C12.169 32.4994 12.037 32.6502 11.9369 32.8673C11.8359 33.0877 11.8077 33.2858 11.8521 33.4615C11.8965 33.6372 12.0025 33.7634 12.17 33.84C12.3427 33.9192 12.5084 33.9198 12.667 33.8417C12.8257 33.7635 12.9558 33.6138 13.0572 33.3923C13.1632 33.1618 13.1964 32.9599 13.157 32.7867C13.1175 32.6135 13.0127 32.4877 12.8427 32.4093Z" fill="#42A844"/>
<path d="M15.7308 35.4896L15.1511 35.3309L15.1267 34.7597L14.2868 34.5301L13.9769 35.0094L13.4004 34.8518L14.906 32.7253L15.5369 32.8979L15.7308 35.4896ZM15.1166 34.318L15.0801 33.455C15.0785 33.3801 15.0848 33.3053 15.0987 33.2317L15.0856 33.2281C15.0608 33.2965 15.028 33.3619 14.9881 33.4228L14.5122 34.1528L15.1166 34.318Z" fill="#42A844"/>
<path d="M17.7275 35.7412L16.2812 35.5571L16.5904 33.1284L17.1374 33.1981L16.8847 35.183L17.7841 35.2976L17.7275 35.7412Z" fill="#42A844"/>
<path d="M19.7608 35.7742L18.3027 35.7656L18.3179 33.3172L18.8694 33.3206L18.8574 35.3215L19.764 35.327L19.7608 35.7742Z" fill="#42A844"/>
<path d="M21.7927 35.558L20.3345 35.7303L20.0469 33.2987L21.4492 33.1333L21.5018 33.5791L20.6473 33.6801L20.7112 34.221L21.5063 34.127L21.5588 34.5712L20.7636 34.6652L20.8293 35.2213L21.7398 35.1138L21.7927 35.558Z" fill="#42A844"/>
<path d="M24.4092 34.9209L23.7965 35.0817L23.2685 34.5689C23.2286 34.5299 23.1913 34.4955 23.1566 34.4658C23.125 34.4385 23.0912 34.414 23.0553 34.3927C23.0255 34.3747 22.9929 34.3618 22.9589 34.3544C22.9267 34.3481 22.8935 34.3493 22.8618 34.3579L22.718 34.3956L22.9558 35.3021L22.4225 35.4422L21.8018 33.0739L22.6473 32.8521C23.222 32.7013 23.5656 32.8407 23.6783 33.2701C23.6995 33.3478 23.7069 33.4285 23.7002 33.5087C23.6936 33.5839 23.6741 33.6574 23.6426 33.726C23.61 33.7957 23.5663 33.8597 23.5131 33.9154C23.4559 33.9751 23.3907 34.0267 23.3193 34.0686L23.3211 34.0751C23.3612 34.0774 23.4006 34.0864 23.4376 34.1019C23.4788 34.1189 23.5185 34.1395 23.5561 34.1635C23.5964 34.189 23.6352 34.2168 23.6724 34.2468C23.7104 34.277 23.7458 34.3073 23.7784 34.3376L24.4092 34.9209ZM22.4396 33.3337L22.6123 33.9926L22.8435 33.932C22.9582 33.9017 23.0415 33.8446 23.0935 33.7605C23.1193 33.7197 23.1363 33.674 23.1432 33.6263C23.1501 33.5785 23.1469 33.5298 23.1337 33.4834C23.0794 33.2764 22.9284 33.2054 22.6806 33.2704L22.4396 33.3337Z" fill="#42A844"/>
<path d="M26.5972 33.803C26.4336 34.0251 26.1891 34.2073 25.8636 34.3496C25.5029 34.5073 25.1748 34.5319 24.8795 34.4232C24.5842 34.3144 24.3599 34.0849 24.2066 33.7346C24.0522 33.3822 24.0402 33.0451 24.1705 32.7234C24.3008 32.4018 24.5547 32.1584 24.932 31.9934C25.1697 31.8895 25.3937 31.8307 25.6039 31.817L25.8113 32.2909C25.5944 32.2665 25.3608 32.309 25.1105 32.4185C24.901 32.5103 24.76 32.653 24.6875 32.8468C24.6151 33.0406 24.6286 33.2512 24.7281 33.4784C24.829 33.7091 24.9662 33.8615 25.1396 33.9358C25.313 34.0101 25.5004 34.0033 25.7019 33.9154C25.823 33.8624 25.9114 33.8032 25.9671 33.7378L25.775 33.2998L25.326 33.4966L25.1494 33.0932L26.1032 32.6758L26.5972 33.803Z" fill="#42A844"/>
<path d="M28.5366 32.8158L27.2894 33.5908L25.9971 31.5112L27.1964 30.7659L27.4333 31.1473L26.7026 31.6015L26.9902 32.0641L27.6704 31.6414L27.9065 32.0214L27.2264 32.4441L27.5219 32.9198L28.3007 32.4354L28.5366 32.8158Z" fill="#42A844"/>
<path d="M30.7418 31.0253L30.3179 31.3866L28.5518 30.8719C28.4753 30.851 28.4001 30.826 28.3263 30.7971L28.3212 30.8017C28.3842 30.8614 28.4733 30.9589 28.5887 31.094L29.4622 32.1173L29.0662 32.4553L27.4766 30.5932L27.9285 30.2073L29.6351 30.7098C29.7124 30.7321 29.7869 30.7561 29.8584 30.7818L29.8636 30.7774C29.8197 30.74 29.7434 30.6577 29.6348 30.5305L28.7557 29.501L29.1517 29.163L30.7418 31.0253Z" fill="#42A844"/>
<path d="M29.9697 28.2234L30.2868 28.5091L30.1496 28.6614L31.3341 29.729L31.4711 29.5776L31.7883 29.8634L31.1446 30.5774L30.8275 30.2916L30.9647 30.1402L29.7804 29.0724L29.6432 29.2246L29.3262 28.9387L29.9697 28.2234Z" fill="#42A844"/>
<path d="M33.126 27.93C33.0927 28.1258 32.9923 28.3408 32.8249 28.5751C32.6066 28.8807 32.3451 29.0569 32.0404 29.1038C31.7357 29.1506 31.4335 29.0671 31.134 28.8533C30.8153 28.626 30.6271 28.343 30.5694 28.0045C30.5118 27.666 30.5951 27.3398 30.8192 27.0259C30.9582 26.8314 31.0999 26.685 31.2442 26.5868L31.6763 26.8954C31.5014 26.9719 31.353 27.0954 31.2313 27.2658C31.0977 27.453 31.0487 27.6459 31.0843 27.8448C31.12 28.0436 31.2383 28.2148 31.4393 28.3583C31.6321 28.496 31.8243 28.5515 32.016 28.5248C32.2077 28.4982 32.3692 28.3931 32.5005 28.2096C32.6227 28.042 32.6972 27.8443 32.7159 27.6377L33.126 27.93Z" fill="#42A844"/>
<path d="M3.65381 22.9158C3.33482 21.6594 3.171 20.3686 3.16602 19.0723C3.16602 19.0478 3.16602 19.023 3.16602 18.998C3.16521 17.7265 3.31735 16.4595 3.61914 15.2244C3.62895 15.1842 3.64658 15.1464 3.67102 15.113C3.69547 15.0797 3.72624 15.0515 3.76159 15.03C3.79694 15.0086 3.83616 14.9943 3.87703 14.988C3.91789 14.9818 3.95959 14.9836 3.99974 14.9935C4.08076 15.0133 4.15061 15.0644 4.19395 15.1356C4.2373 15.2069 4.25059 15.2924 4.23092 15.3735C3.94119 16.5596 3.79516 17.7764 3.79597 18.9974C3.79597 19.021 3.79597 19.0448 3.79597 19.0687C3.8007 20.3136 3.95801 21.5532 4.26438 22.7599C4.28496 22.8407 4.2726 22.9264 4.23002 22.9982C4.18744 23.07 4.11813 23.1219 4.03729 23.1426C4.01187 23.1491 3.98572 23.1524 3.95947 23.1524C3.88953 23.1523 3.8216 23.129 3.76639 23.086C3.71119 23.0431 3.67184 22.983 3.65457 22.9152L3.65381 22.9158Z" fill="#42A844"/>
<path d="M34.0009 23.0065C33.9608 22.9967 33.9229 22.979 33.8896 22.9546C33.8562 22.9302 33.828 22.8994 33.8066 22.864C33.7851 22.8287 33.7708 22.7895 33.7645 22.7486C33.7582 22.7077 33.7601 22.666 33.7699 22.6259C34.0596 21.4396 34.2056 20.2228 34.2047 19.0017V18.9303C34.1996 17.6854 34.042 16.4458 33.7354 15.2392C33.7251 15.1992 33.7229 15.1575 33.7288 15.1166C33.7347 15.0757 33.7485 15.0364 33.7696 15.0008C33.7907 14.9653 33.8186 14.9343 33.8517 14.9095C33.8848 14.8848 33.9224 14.8668 33.9625 14.8566C34.0025 14.8464 34.0442 14.8442 34.0851 14.85C34.126 14.8559 34.1653 14.8698 34.2009 14.8909C34.2364 14.912 34.2675 14.9398 34.2922 14.9729C34.317 15.006 34.335 15.0437 34.3452 15.0837C34.6643 16.3402 34.8281 17.6311 34.833 18.9275C34.833 18.9523 34.833 18.9768 34.833 19.0013C34.8338 20.2729 34.6818 21.5399 34.3802 22.7752C34.3634 22.8436 34.3242 22.9044 34.2689 22.948C34.2135 22.9915 34.1451 23.0152 34.0746 23.0153C34.0491 23.0153 34.0237 23.0123 33.999 23.0062L34.0009 23.0065Z" fill="#42A844"/>
<path d="M15.8935 27.0827H15.5824L15.0185 26.2229C14.9936 26.1863 14.9708 26.1484 14.9499 26.1093H14.9461C14.9511 26.1576 14.9536 26.2314 14.9537 26.3307V27.0827H14.6621V25.7137H14.9952L15.5381 26.5464C15.5629 26.584 15.5858 26.6212 15.6068 26.658H15.6106C15.604 26.5956 15.6015 26.5328 15.603 26.4701V25.7131H15.894L15.8935 27.0827Z" fill="white"/>
<path d="M17.4097 27.0827H17.0739L16.9766 26.7782H16.49L16.3935 27.0827H16.0596L16.5577 25.7144H16.9231L17.4097 27.0827ZM16.906 26.5416L16.759 26.0816C16.747 26.0415 16.7394 26.0003 16.7361 25.9586H16.7284C16.7252 25.9991 16.7172 26.0392 16.7047 26.0779L16.5558 26.5416H16.906Z" fill="white"/>
<path d="M18.4045 25.9652H18.0142V27.0827H17.7047V25.9652H17.3164V25.7137H18.4042L18.4045 25.9652Z" fill="white"/>
<path d="M19.7048 26.4901C19.7048 26.901 19.5133 27.1064 19.1304 27.1064C18.7591 27.1064 18.5733 26.9057 18.5732 26.5043V25.7137H18.8824V26.5075C18.8824 26.729 18.9689 26.8398 19.1419 26.8397C19.3117 26.8397 19.3967 26.7328 19.3967 26.519V25.7137H19.7048V26.4901Z" fill="white"/>
<path d="M21.1503 27.0827H20.7962L20.5835 26.7305C20.5684 26.7037 20.5523 26.6799 20.5381 26.6589C20.5249 26.6397 20.5101 26.6216 20.4937 26.605C20.4801 26.5911 20.4643 26.5795 20.447 26.5706C20.4305 26.5626 20.4124 26.5586 20.3941 26.5587H20.311V27.0827H20.0029V25.7137H20.4912C20.8232 25.7137 20.9892 25.8378 20.9891 26.0859C20.9896 26.1309 20.9821 26.1756 20.9672 26.218C20.953 26.2577 20.932 26.2947 20.9052 26.3272C20.8778 26.3603 20.845 26.3887 20.8083 26.4112C20.769 26.4355 20.7264 26.4541 20.6819 26.4665V26.4704C20.7033 26.4773 20.7233 26.4878 20.7411 26.5015C20.761 26.5164 20.7795 26.5331 20.7964 26.5514C20.8146 26.5709 20.8316 26.5915 20.8474 26.613C20.8638 26.635 20.8777 26.6565 20.8918 26.6774L21.1503 27.0827ZM20.3106 25.9452V26.326H20.4442C20.5103 26.326 20.5634 26.3069 20.6035 26.2688C20.6232 26.2503 20.6387 26.228 20.6492 26.2032C20.6596 26.1783 20.6647 26.1516 20.6641 26.1246C20.6641 26.005 20.5925 25.9452 20.4494 25.9452H20.3106Z" fill="white"/>
<path d="M22.481 27.0827H22.1452L22.0479 26.7782H21.5613L21.4648 27.0827H21.1309L21.6289 25.7144H21.9944L22.481 27.0827ZM21.9773 26.5416L21.8303 26.0816C21.8184 26.0415 21.8107 26.0003 21.8074 25.9586H21.7997C21.7965 25.9991 21.7885 26.0392 21.7759 26.0779L21.6271 26.5416H21.9773Z" fill="white"/>
<path d="M23.4663 27.0827H22.6514V25.7137H22.9596V26.8319H23.4663V27.0827Z" fill="white"/>
<path d="M18.165 22.707C18.165 22.707 21.0889 24.8738 24.0269 22.7013C26.9648 20.5288 27.6281 19.8631 28.9985 20.3978C28.9985 20.3978 27.4273 18.572 24.4524 17.8695C21.4775 17.1671 19.4084 18.7855 18.4758 20.9472C18.4758 20.9472 20.1162 19.269 22.5969 19.476C22.5969 19.4752 19.5668 19.8973 18.165 22.707Z" fill="white"/>
<path d="M18.67 19.117C18.67 19.117 21.026 17.7848 21.4984 16.4289C21.9707 15.073 21.9677 12.9468 23.3302 12.1055C23.3302 12.1055 20.0904 11.8963 17.8557 14.5732C15.621 17.2502 17.6892 18.9865 17.6892 18.9865C17.6892 18.9865 17.6304 16.3081 18.94 15.3357C18.9401 15.3352 17.8528 17.794 18.67 19.117Z" fill="white"/>
<path d="M17.4713 22.5073C17.4713 22.5073 15.7532 23.4749 14.1625 22.4404C12.5718 21.406 11.2515 19.8348 9.16602 20.0127C9.16602 20.0127 11.3764 18.9915 12.277 18.3552C13.1776 17.7189 14.7658 17.1493 16.0608 17.8956C17.3558 18.6418 17.8969 20.2844 17.8389 21.0446C17.8389 21.0446 16.5486 18.9078 14.1647 19.3537C14.164 19.3535 17.4062 19.9211 17.4713 22.5073Z" fill="white"/>
</g>
<defs>
<clipPath id="clip0_295_54">
<rect width="38" height="38" fill="white"/>
</clipPath>
</defs>
</svg>
