<svg width="35" height="36" viewBox="0 0 35 36" fill="none" xmlns="http://www.w3.org/2000/svg">
<path fill-rule="evenodd" clip-rule="evenodd" d="M27.7083 3.75C23.113 3.75 11.8868 3.75 7.29159 3.75C6.48586 3.75 5.83325 4.42125 5.83325 5.25C5.83325 7.53525 5.83325 7.5 5.83325 7.5H29.1666C29.1666 7.5 29.1666 7.53525 29.1666 5.25C29.1666 4.42125 28.514 3.75 27.7083 3.75ZM10.2083 6C9.80575 6 9.47908 5.664 9.47908 5.25C9.47908 4.836 9.80575 4.5 10.2083 4.5C10.6108 4.5 10.9374 4.836 10.9374 5.25C10.9374 5.664 10.6108 6 10.2083 6ZM24.7916 6C24.3891 6 24.0624 5.664 24.0624 5.25C24.0624 4.836 24.3891 4.5 24.7916 4.5C25.1941 4.5 25.5208 4.836 25.5208 5.25C25.5208 5.664 25.1941 6 24.7916 6Z" fill="#C7C7C7"/>
<path fill-rule="evenodd" clip-rule="evenodd" d="M32.0834 8.25C32.1585 7.8135 31.056 6.75 30.6251 6.75C25.44 6.75 9.56019 6.75 4.37509 6.75C3.64592 6.75 2.84165 7.8135 2.91675 8.25C3.51686 11.748 5.10425 19.5 5.10425 19.5H29.8959C29.8959 19.5 31.4833 11.748 32.0834 8.25Z" fill="#1976D2"/>
<path fill-rule="evenodd" clip-rule="evenodd" d="M29.8959 19.5H5.10425C5.10425 19.5 3.51685 27.252 2.91675 30.75C2.91675 31.6095 3.49425 32.25 4.37508 32.25C9.56019 32.25 25.44 32.25 30.6251 32.25C31.056 32.25 32.0834 31.875 32.0834 30.75C31.4833 27.252 29.8959 19.5 29.8959 19.5Z" fill="#1E88E5"/>
<path fill-rule="evenodd" clip-rule="evenodd" d="M4.37507 6.75C3.32652 6.75 2.84163 7.8135 2.91673 8.25C3.51684 11.748 5.10423 19.5 5.10423 19.5L4.37507 6.75ZM29.8959 19.5C29.8959 19.5 31.4833 11.748 32.0834 8.25C32.0834 7.03125 31.056 6.75 30.6251 6.75" fill="#1976D2"/>
<path d="M20.84 25H12.34V23.1L15.6 19.74C16.5867 18.7267 17.28 17.9333 17.68 17.36C18.08 16.7867 18.28 16.16 18.28 15.48C18.28 14.7867 18.0867 14.2933 17.7 14C17.3133 13.7067 16.68 13.56 15.8 13.56C14.9733 13.56 14.06 13.6533 13.06 13.84L12.56 13.92L12.42 12.16C13.7133 11.7733 15.0533 11.58 16.44 11.58C19.2 11.58 20.58 12.8067 20.58 15.26C20.58 16.22 20.3667 17.0533 19.94 17.76C19.5267 18.4667 18.78 19.32 17.7 20.32L14.88 23.06H20.84V25Z" fill="white"/>
</svg>
