<svg width="155" height="33" viewBox="0 0 155 33" fill="none" xmlns="http://www.w3.org/2000/svg">
<path d="M9.5 0C9.5 0 0.157227 11.9017 0.157227 17.0572C0.157227 22.2128 4.34356 26.4 9.5 26.4C14.6564 26.4 18.8428 22.2085 18.8428 17.0572C18.8428 11.9059 9.5 0 9.5 0ZM9.5 24.0509C9.21769 24.042 8.99359 23.8107 8.99359 23.5282C8.99359 23.2459 9.2177 23.0146 9.5 23.0058C13.2285 23.0058 16.2669 19.9673 16.2669 16.2389V16.2387C16.2757 15.9566 16.5072 15.7323 16.7895 15.7323C17.0718 15.7323 17.3033 15.9566 17.3121 16.2387C17.3337 20.5545 13.8156 24.0508 9.50009 24.0508L9.5 24.0509Z" fill="#242C6C"/>
<g opacity="0.9">
<path d="M42.5 0C42.5 0 33.1572 11.9017 33.1572 17.0572C33.1572 22.2128 37.3436 26.4 42.5 26.4C47.6564 26.4 51.8428 22.2085 51.8428 17.0572C51.8428 11.9059 42.5 0 42.5 0ZM42.5 24.0509C42.2177 24.042 41.9936 23.8107 41.9936 23.5282C41.9936 23.2459 42.2177 23.0146 42.5 23.0058C46.2285 23.0058 49.2669 19.9673 49.2669 16.2389V16.2387C49.2757 15.9566 49.5072 15.7323 49.7895 15.7323C50.0718 15.7323 50.3033 15.9566 50.3121 16.2387C50.3337 20.5545 46.8156 24.0508 42.5001 24.0508L42.5 24.0509Z" fill="#242C6C"/>
</g>
<g opacity="0.9">
<path d="M75.0001 0C75.0001 0 65.9404 11.9017 65.9404 17.0572C65.9404 22.2128 69.9999 26.4 75.0001 26.4C80.0003 26.4 84.0597 22.2085 84.0597 17.0572C84.0597 11.9059 75.0001 0 75.0001 0ZM75.0001 24.0509C74.7263 24.042 74.509 23.8107 74.509 23.5282C74.509 23.2459 74.7263 23.0146 75.0001 23.0058C78.6156 23.0058 81.5619 19.9673 81.5619 16.2389V16.2387C81.5705 15.9566 81.795 15.7323 82.0687 15.7323C82.3425 15.7323 82.5669 15.9566 82.5755 16.2387C82.5964 20.5545 79.185 24.0508 75.0002 24.0508L75.0001 24.0509Z" fill="#242C6C"/>
</g>
<g opacity="0.9">
<path d="M108 0C108 0 98.9404 11.9017 98.9404 17.0572C98.9404 22.2128 103 26.4 108 26.4C113 26.4 117.06 22.2085 117.06 17.0572C117.06 11.9059 108 0 108 0ZM108 24.0509C107.726 24.042 107.509 23.8107 107.509 23.5282C107.509 23.2459 107.726 23.0146 108 23.0058C111.616 23.0058 114.562 19.9673 114.562 16.2389V16.2387C114.57 15.9566 114.795 15.7323 115.069 15.7323C115.342 15.7323 115.567 15.9566 115.575 16.2387C115.596 20.5545 112.185 24.0508 108 24.0508L108 24.0509Z" fill="#242C6C"/>
</g>
<g opacity="0.9">
<path d="M139 0C139 0 129.94 11.9017 129.94 17.0572C129.94 22.2128 134 26.4 139 26.4C144 26.4 148.06 22.2085 148.06 17.0572C148.06 11.9059 139 0 139 0ZM139 24.0509C138.726 24.042 138.509 23.8107 138.509 23.5282C138.509 23.2459 138.726 23.0146 139 23.0058C142.616 23.0058 145.562 19.9673 145.562 16.2389V16.2387C145.57 15.9566 145.795 15.7323 146.069 15.7323C146.342 15.7323 146.567 15.9566 146.575 16.2387C146.596 20.5545 143.185 24.0508 139 24.0508L139 24.0509Z" fill="#242C6C"/>
</g>
</svg>
