<svg width="85" height="85" viewBox="0 0 85 85" fill="none" xmlns="http://www.w3.org/2000/svg">
<mask id="mask0_214_462" style="mask-type:alpha" maskUnits="userSpaceOnUse" x="0" y="0" width="85" height="85">
<circle cx="42.5" cy="42.5" r="42.5" fill="#C4C4C4"/>
</mask>
<g mask="url(#mask0_214_462)">
<path d="M74.467 59.5029C74.8013 59.5698 71.8105 72.5693 61.0229 78.4773C52.6389 83.4402 39.4466 84.0907 39.4466 84.0907C39.4466 84.0907 32.0587 76.2325 32.9966 74.7555C33.9345 73.2785 37.1012 70.3832 43.6083 69.9699C50.1165 69.5566 55.5691 67.4291 55.5691 67.4291C55.5691 67.4291 62.8976 64.1793 66.5921 59.4524C70.2866 54.7842 74.467 59.5029 74.467 59.5029Z" fill="#FFD0A9"/>
<path d="M57.5068 66.4795C57.5068 66.4795 54.1444 71.177 47.1072 71.6267C40.0689 72.0775 38.1721 70.5066 38.1721 70.5066C38.1721 70.5066 46.7775 69.9701 49.7531 69.019C54.5976 67.4704 57.5068 66.4795 57.5068 66.4795Z" fill="#EFAD84"/>
<path d="M62.2869 74.6399C62.4442 75.5487 62.6014 76.4562 62.7587 77.365C62.7424 77.2675 66.2855 74.7879 66.6432 74.4509C67.7372 73.4165 69.2401 72.0311 69.7644 70.6128C68.865 70.7466 67.4075 72.6123 66.4602 73.1641C65.1763 73.912 63.7549 74.4227 62.2869 74.6399Z" fill="#EFAD84"/>
<path d="M16.9714 17.7273C16.9714 17.7273 20.1137 21.5102 17.1462 25.2932C14.1775 29.0761 10.2488 34.5309 10.4236 41.6565C10.5984 48.782 15.0502 56.524 18.1062 59.3395C17.6693 59.7797 15.8669 60.2975 16.0685 63.4499C16.312 67.254 22.7654 69.3404 25.0024 65.8498C29.368 69.9849 40.5424 71.6557 49.6208 69.0175C58.7004 66.3781 61.9301 62.243 65.2482 55.6458C68.5653 49.0474 63.8513 42.449 60.709 40.0738C57.5656 37.6986 57.653 30.1328 54.5981 24.2377C51.5421 18.3437 45.5186 16.4957 40.892 16.5838C40.6007 15.3815 38.4185 12.8595 32.7724 13.5335C27.1264 14.2074 24.9442 18.049 22.7328 18.6654C20.5215 19.2818 16.9714 17.7273 16.9714 17.7273Z" fill="#FFD0A9"/>
<path d="M16.9714 17.7273C16.9714 17.7273 20.1137 21.5102 17.1462 25.2932C14.1775 29.0761 10.2488 34.5309 10.4236 41.6565C10.5984 48.782 15.0502 56.524 18.1062 59.3394C17.6693 59.7797 15.8669 60.2975 16.0685 63.4499C16.312 67.254 22.7654 69.3404 25.0024 65.8498C29.368 69.9849 40.5494 71.6815 49.6208 69.0175C58.0794 66.5331 62.939 61.0454 65.2482 55.6458C68.1528 48.8525 63.8513 42.449 60.709 40.0738C57.5656 37.6986 57.653 30.1328 54.5981 24.2377C51.5421 18.3437 45.5185 16.4957 40.892 16.5838C40.6007 15.3815 38.4185 12.8595 32.7724 13.5335C27.1264 14.2074 24.9442 18.049 22.7328 18.6654C20.5215 19.2818 16.9714 17.7273 16.9714 17.7273Z" fill="#FFD0A9"/>
<path d="M16.9718 17.7279L17.2911 17.459C17.3051 17.4766 17.686 17.9357 18.0682 18.7C18.4503 19.4643 18.8372 20.5363 18.8383 21.7785C18.8407 22.9502 18.483 24.2711 17.4728 25.5532C16.0258 27.3977 14.3632 29.6249 13.0653 32.2338C11.7674 34.8426 10.8353 37.8271 10.8341 41.1979C10.8341 41.347 10.8365 41.4962 10.84 41.6464C10.9238 45.1253 12.061 48.7955 13.5604 51.9326C14.3096 53.5012 15.1473 54.9383 15.9838 56.1512C16.8192 57.364 17.6558 58.3561 18.3874 59.03C18.4713 59.1075 18.5203 59.2144 18.5226 59.3294C18.5249 59.4445 18.4818 59.5537 18.4014 59.6347C18.3152 59.7204 18.2278 59.7826 18.1358 59.8472C17.9762 59.9576 17.7991 60.0691 17.6185 60.2112C17.347 60.4248 17.0709 60.7008 16.8518 61.1246C16.634 61.5496 16.4709 62.1308 16.4697 62.9714C16.4697 63.1135 16.4743 63.2638 16.4848 63.4211C16.5198 63.9577 16.6934 64.4543 16.9777 64.9099C17.4029 65.592 18.0833 66.172 18.8826 66.5771C19.6818 66.9821 20.5964 67.2111 21.4703 67.2111C22.1181 67.2111 22.7402 67.0866 23.2855 66.8272C23.8307 66.5677 24.2991 66.1767 24.6556 65.6202C24.722 65.5157 24.8316 65.4464 24.9551 65.4312C25.0774 65.4159 25.2009 65.457 25.2906 65.5415C26.6806 66.8612 28.857 67.9566 31.4738 68.7081C34.0906 69.4618 37.1454 69.8774 40.2924 69.8763C43.3833 69.8763 46.564 69.4759 49.5082 68.6106C53.6793 67.3849 56.9497 65.4253 59.464 63.1112C61.9782 60.797 63.7364 58.1248 64.87 55.4749C65.5236 53.9439 65.7986 52.4422 65.7986 51.0004C65.7986 48.6311 65.0529 46.4215 64.0067 44.5817C62.9627 42.7419 61.6159 41.2743 60.4636 40.4043C60.0279 40.0743 59.655 39.6611 59.3311 39.1855C58.7637 38.3531 58.3373 37.3317 57.9633 36.1893C57.4041 34.4751 56.9672 32.4827 56.4184 30.4433C55.8708 28.4039 55.2137 26.3187 54.2339 24.4284C52.7833 21.6317 50.6547 19.7825 48.321 18.6213C45.9873 17.4602 43.4451 16.9964 41.2104 16.9964C41.1079 16.9964 41.0054 16.9976 40.9052 16.9999C40.7106 17.0035 40.5394 16.8708 40.4927 16.6806C40.4473 16.488 40.3168 16.2015 40.0803 15.8951C39.3649 14.977 37.7175 13.8428 34.5834 13.8405C34.0416 13.8405 33.4556 13.8745 32.8229 13.9508C31.454 14.114 30.3028 14.4686 29.3044 14.9171C27.8072 15.591 26.6538 16.4798 25.653 17.2782C25.152 17.6774 24.6894 18.0531 24.2339 18.3677C23.7783 18.6812 23.3286 18.9348 22.8462 19.0699C22.4338 19.1849 21.9957 19.2295 21.5507 19.2295C20.4287 19.2284 19.2566 18.9466 18.3525 18.6695C17.4495 18.3924 16.818 18.1165 16.8087 18.1118L16.9718 17.7279L17.2911 17.459L16.9718 17.7279L17.1373 17.3439L17.1431 17.3463C17.206 17.3733 17.827 17.6386 18.674 17.8934C19.5199 18.1494 20.5976 18.3924 21.5495 18.3912C21.9386 18.3912 22.3045 18.3513 22.6237 18.2621C23.0863 18.1353 23.6036 17.8124 24.1919 17.3639C25.0774 16.6947 26.1202 15.7624 27.4845 14.9324C28.8488 14.1023 30.5429 13.3767 32.7251 13.1172C33.388 13.0374 34.0078 13.001 34.5846 13.001C36.8064 13.001 38.4049 13.5434 39.4861 14.2502C40.0267 14.6036 40.438 14.9969 40.7339 15.382C41.0299 15.7683 41.2139 16.1428 41.2978 16.4833L40.8935 16.5831L40.8854 16.164C40.9926 16.1616 41.0998 16.1605 41.2081 16.1605C43.5558 16.1605 46.2157 16.6442 48.6868 17.8711C51.1557 19.0969 53.4334 21.0775 54.969 24.0421C56.5303 27.056 57.2736 30.4538 58.0262 33.3679C58.4014 34.825 58.7777 36.1611 59.2438 37.2589C59.4768 37.8083 59.7308 38.2968 60.0151 38.7124C60.2993 39.128 60.6116 39.4709 60.9611 39.735C62.2182 40.6872 63.6233 42.2253 64.7279 44.166C65.83 46.1068 66.6293 48.4526 66.6305 51.0016C66.6305 52.5502 66.3334 54.1716 65.6343 55.8071C64.4587 58.558 62.633 61.3301 60.0255 63.7299C57.4181 66.1309 54.03 68.1562 49.7413 69.416C46.7085 70.306 43.4544 70.7146 40.2924 70.7146C37.0732 70.7146 33.9484 70.2919 31.2454 69.5135C28.5424 68.7339 26.2588 67.6056 24.7209 66.1509L25.0052 65.8456L25.3547 66.0734C24.9131 66.7638 24.3143 67.2639 23.6408 67.5833C22.9674 67.9038 22.2229 68.047 21.4714 68.047C20.1176 68.0459 18.7335 67.5868 17.6418 66.7943C17.0965 66.3974 16.6246 65.9137 16.2751 65.3549C15.9256 64.7972 15.7007 64.1596 15.6565 63.4728C15.6448 63.2978 15.6401 63.13 15.6401 62.9691C15.6401 62.2447 15.7497 61.6506 15.9291 61.1622C16.1971 60.4295 16.6258 59.9458 17.0126 59.6253C17.206 59.4644 17.3901 59.3412 17.5346 59.2425C17.6791 59.1463 17.7886 59.0676 17.8142 59.0382L18.1078 59.3341L17.827 59.6429C17.0313 58.9091 16.1644 57.8771 15.3011 56.6243C14.0067 54.7458 12.7216 52.3718 11.7382 49.7852C10.7561 47.1975 10.0768 44.3973 10.0092 41.6617C10.0057 41.5044 10.0034 41.3482 10.0034 41.1932C10.0034 37.6628 10.9821 34.5455 12.322 31.8534C13.6618 29.16 15.364 26.8869 16.8204 25.0295C17.7152 23.886 18.0041 22.7788 18.0064 21.7738C18.0076 20.7112 17.6697 19.7579 17.326 19.0722C17.1548 18.7294 16.9835 18.4558 16.8565 18.2691C16.7924 18.1752 16.74 18.1047 16.705 18.0578C16.6876 18.0343 16.6736 18.0167 16.6654 18.0061L16.6561 17.9944L16.6549 17.992L16.7248 17.9345L16.6561 17.9932L16.726 17.9357L16.6573 17.9944C16.5326 17.8453 16.5268 17.6304 16.6433 17.4743C16.7586 17.3181 16.9649 17.2629 17.1419 17.3404L16.9718 17.7279Z" fill="#C16B57"/>
<path d="M55.5211 52.9096C53.2842 51.2506 53.3028 47.396 55.5643 44.3011C57.0497 42.2664 59.1341 41.0665 61.0239 40.9526C62.549 42.3533 64.2291 44.5571 65.153 47.1647C64.8908 48.2249 64.3957 49.3063 63.6651 50.3078C61.4037 53.4027 57.7581 54.5686 55.5211 52.9096Z" fill="#FDBA9C"/>
<path d="M31.2318 47.5236C33.0925 46.6794 35.4005 46.9225 36.4258 48.066C37.5291 49.2965 37.7132 50.6397 34.811 51.8924C31.7479 53.2156 30.0399 53.8097 29.7696 50.9684C29.5506 48.6813 30.1459 48.0167 31.2318 47.5236Z" fill="white"/>
<path d="M56.0536 39.4873C57.3341 40.4548 57.5088 42.3028 55.0936 43.7692C52.5083 45.3378 50.6942 44.2847 50.5253 41.5995C50.4088 39.7515 53.3996 37.4808 56.0536 39.4873Z" fill="white"/>
<path d="M32.1333 62.5079C35.7978 62.5079 38.7685 60.4599 38.7685 57.9336C38.7685 55.4073 35.7978 53.3594 32.1333 53.3594C28.4687 53.3594 25.498 55.4073 25.498 57.9336C25.498 60.4599 28.4687 62.5079 32.1333 62.5079Z" fill="#FDBA9C"/>
<path d="M74.677 59.8695C77.1913 58.4066 78.4508 54.7152 78.4508 54.7152L80.1751 53.6632C80.1751 53.6632 80.8765 54.4369 82.0777 54.1587C83.2789 53.8804 82.207 50.8724 80.1984 50.7984C80.5468 50.2818 79.4749 47.2738 77.6562 48.5536C77.6562 48.5536 77.1622 46.7326 75.3598 47.1494C76.1963 45.832 76.0728 42.5669 74.6199 42.5669C74.183 42.5669 71.9029 47.2715 71.7398 47.2421C71.7398 47.2421 70.7926 48.6874 69.4015 51.1201C68.3599 52.9423 68.3681 54.8502 68.537 55.7895L66.1252 59.6934L71.6548 65.7728L74.5873 60.116L74.677 59.8695Z" fill="#FFD0A9"/>
<path d="M80.0542 49.3264C80.1765 49.5236 80.8313 51.7298 79.6126 52.6714C78.3939 53.613 77.491 51.9787 77.4409 50.1635C77.392 48.3484 78.839 47.3586 80.0542 49.3264Z" fill="#FFD0A9"/>
<path d="M79.3007 50.692C78.8731 50.2717 78.5317 49.7621 78.3045 49.2056C78.1495 48.8264 78.2509 48.3826 78.7426 48.527C79.0036 48.6033 79.2913 48.7888 79.5045 48.959C79.9088 49.2843 80.0265 49.9007 79.9997 50.3996C79.9741 50.8564 79.6513 51.036 79.3007 50.692Z" fill="#FFD8BC"/>
<path d="M74.4368 49.2581C75.1813 51.7824 77.8925 52.1792 77.9974 50.7879C78.1022 49.3966 77.4265 47.396 76.4676 46.8899C75.6567 46.4626 74.9541 47.5803 74.4077 48.4656L74.4368 49.2581Z" fill="#FFD0A9"/>
<path d="M77.2301 47.6254C77.533 48.1385 77.695 48.7361 77.6903 49.3337C77.6891 49.5416 77.6437 49.7858 77.4584 49.875C77.2639 49.9678 77.0413 49.8351 76.8771 49.6942C76.3446 49.2363 75.9357 48.634 75.705 47.9683C75.6444 47.7933 75.5966 47.6031 75.6502 47.4259C75.7248 47.1816 75.9916 47.0302 76.2456 47.0384C76.4996 47.0478 76.7338 47.191 76.9062 47.3777C77.0798 47.5644 77.201 47.7922 77.321 48.0176L77.2301 47.6254Z" fill="#FFD8BC"/>
<path d="M74.8525 55.759C74.8525 55.759 75.2836 52.9013 74.263 51.8047C75.1461 50.3183 74.6917 48.3435 73.2377 47.895C72.7251 47.7365 71.6264 50.3888 71.0193 51.2916C70.8632 51.5241 70.0488 52.4094 70.0488 52.4094L74.8525 55.759Z" fill="#FFD0A9"/>
<path d="M30.0421 57.7803C30.6074 57.6878 30.9913 57.1511 30.8995 56.5814C30.8078 56.0118 30.2751 55.6249 29.7098 55.7174C29.1445 55.8098 28.7607 56.3466 28.8524 56.9162C28.9441 57.4859 29.4768 57.8727 30.0421 57.7803Z" fill="#FFD0A9"/>
<path d="M59.0117 43.4434C59.0117 44.0199 59.4754 44.4883 60.0486 44.4883C60.6207 44.4883 61.0856 44.021 61.0856 43.4434C61.0856 42.8669 60.6219 42.3984 60.0486 42.3984C59.4754 42.3984 59.0117 42.8669 59.0117 43.4434Z" fill="#FFD0A9"/>
<path d="M19.5024 62.474C19.3988 62.6666 19.3661 62.8908 19.3708 63.1092C19.3836 63.6751 19.6632 64.2387 20.1304 64.5522C20.5976 64.8656 21.2478 64.8985 21.7231 64.5968C22.1973 64.295 22.4466 63.6552 22.2637 63.121C22.1134 62.683 21.715 62.3684 21.2827 62.211C20.7106 62.0021 19.8531 61.8224 19.5024 62.474Z" fill="#EFAD84"/>
<path d="M77.0942 54.3698C76.514 53.8497 75.5528 53.8356 74.9574 54.3381C74.4134 53.4282 74.27 52.2847 74.5741 51.2679C74.672 50.9415 74.813 50.6257 74.8654 50.2899C74.9423 49.7956 74.8118 49.2719 74.5135 48.8716C75.3221 49.6911 76.3229 50.284 77.3133 50.8675C78.0857 51.3231 78.857 51.7786 79.6295 52.2342C79.4244 52.7214 79.5561 53.3331 79.944 53.6901C79.7949 53.5527 78.6543 54.6011 78.5308 54.7291C78.1148 55.1577 77.77 55.6543 77.5148 56.1956C77.7933 55.6015 77.5684 54.7949 77.0942 54.3698Z" fill="#EFAD84"/>
<path d="M36.4031 19.2318C35.4943 19.7707 34.2617 19.6908 33.4298 19.0392C33.4356 21.4332 32.027 23.7767 29.9182 24.8815C32.6492 23.8577 34.8629 21.8253 37.2513 20.144C39.6398 18.4627 42.507 17.062 45.3732 17.588C43.2667 17.4166 41.215 16.6053 39.5547 15.2856C39.6654 15.3737 37.9259 16.5548 37.7919 16.8026C37.2944 17.7195 37.4552 18.6071 36.4031 19.2318Z" fill="#EFAD84"/>
<path d="M15.8685 32.2444C15.6041 32.4628 15.3011 32.741 15.3524 33.0815C15.4025 33.4126 15.7928 33.6005 16.1202 33.5441C16.4476 33.4878 16.7167 33.26 16.9579 33.0299C18.6986 31.3615 20.3472 28.5061 20.1701 26.0029C19.4267 26.6827 19.0795 28.3852 18.4853 29.3009C17.7665 30.4081 16.8833 31.4061 15.8685 32.2444Z" fill="#EFAD84"/>
<path d="M19.3454 57.2807C19.7031 57.4239 20.0817 57.5613 20.338 57.8501C20.5944 58.1389 20.6678 58.6356 20.3811 58.895C20.2472 59.0171 20.0631 59.0629 19.8871 59.1052C19.1904 59.2719 18.4925 59.4398 17.7958 59.6065C17.0222 58.423 16.2497 57.2407 15.4761 56.0573C15.0916 55.4679 13.3684 53.4613 13.7075 52.8872C15.4377 54.6941 16.9511 56.3261 19.3454 57.2807Z" fill="#EFAD84"/>
<path d="M28.1303 21.7662C28.6173 21.8589 29.1206 21.9505 29.6041 21.8425C30.0876 21.7345 30.5513 21.3728 30.6212 20.8785C30.6912 20.3819 30.3416 19.9017 29.9001 19.6704C29.4585 19.4403 28.9435 19.4086 28.446 19.4015C27.7248 19.3898 23.3534 19.3698 23.245 20.207C23.1041 21.2953 27.4743 21.6417 28.1303 21.7662Z" fill="#FFD8BC"/>
<path d="M37.0731 16.1914C37.3842 15.9213 37.5881 15.4858 37.4785 15.0866C37.2991 14.4361 36.4742 14.2541 35.8043 14.2635C34.6788 14.28 30.6499 14.6369 31.5436 16.4262C32.3684 18.0793 36.0618 17.0708 37.0731 16.1914Z" fill="#FFD8BC"/>
<path d="M47.7665 23.6633C48.5354 24.0202 49.4524 24.4452 50.1747 23.999C50.8085 23.6069 50.9297 22.67 50.6093 21.9937C50.2877 21.3174 49.6423 20.8595 48.9863 20.5061C46.6725 19.2569 43.8786 18.9387 41.3468 19.6361C39.224 20.2196 36.9136 21.6156 35.7485 23.5435C36.5 23.756 37.5451 23.0833 38.3339 22.8743C39.358 22.603 40.4136 22.4492 41.4726 22.414C43.6281 22.3412 45.8033 22.7533 47.7665 23.6633Z" fill="#FFD8BC"/>
<path d="M45.3735 47.4994C45.7755 47.0356 46.2147 46.5472 46.8077 46.3969C47.4008 46.2466 48.1592 46.6294 48.1558 47.2446C48.1534 47.5722 47.9449 47.8622 47.7084 48.0865C46.9872 48.7686 45.9095 49.0433 44.9541 48.7897C44.5113 48.6723 44.0243 48.3095 44.1269 47.8587C44.2329 47.3879 44.8492 47.2939 45.3281 47.301L45.3735 47.4994Z" fill="#FFD8BC"/>
<path d="M73.0783 48.1108C73.3474 48.658 73.6236 49.2521 73.5222 49.8544C73.4208 50.4567 72.7486 50.9874 72.2115 50.7056C71.7571 50.4661 71.6895 49.7957 71.9376 49.3436C72.1846 48.8916 72.646 48.6075 73.0864 48.3433L73.0783 48.1108Z" fill="#FFD8BC"/>
<path d="M53.3966 24.4873C53.696 24.9945 54.0059 25.5322 54.0094 26.1216C54.0141 26.711 53.5853 27.3485 53.0005 27.3415C52.6241 27.3368 52.2874 27.0679 52.1115 26.7321C51.9356 26.3975 51.8971 26.0066 51.9006 25.6273C51.9041 25.2434 51.9565 24.836 52.1954 24.5366C52.4342 24.2372 52.9142 24.108 53.2055 24.3558L53.3966 24.4873Z" fill="#FFD8BC"/>
<path d="M68.8283 56.8838C65.4717 61.9124 61.8797 64.8194 59.0334 66.3C50.3499 70.8179 44.6573 70.151 44.6188 70.1569C44.3905 70.1921 53.7788 68.0494 53.745 67.8193C53.7112 67.5891 53.8685 67.3743 54.0969 67.339L54.1109 67.4353L54.0957 67.339L54.1097 67.4353L54.0946 67.339C54.1155 67.3355 55.9995 67.0385 58.6897 65.5251C61.3799 64.0117 64.8752 61.2878 68.1328 56.4106C68.2621 56.2169 68.5219 56.1664 68.7142 56.2956C68.9064 56.4282 68.9577 56.69 68.8283 56.8838Z" fill="#C16B57"/>
<path d="M62.6654 76.7662L62.7295 77.0057L62.6642 76.7674L62.6654 76.7662L62.7295 77.0057L62.6642 76.7674L62.6805 76.7627C62.8646 76.7051 64.5319 76.1416 66.7502 73.7734C68.9674 71.4053 71.7345 67.2244 74.0856 59.9227C74.1567 59.7008 74.3932 59.5799 74.6134 59.6515C74.8336 59.7231 74.9536 59.9614 74.8825 60.1833C72.4056 67.8772 69.4474 72.2201 67.0822 74.6434C64.7171 77.0679 62.9473 77.5658 62.8832 77.5822C62.6596 77.6421 62.43 77.5094 62.3706 77.284C62.3089 77.0585 62.4417 76.8272 62.6654 76.7662Z" fill="#C16B57"/>
<path d="M12.3197 31.8571C13.07 30.3495 13.9334 28.9747 14.8025 27.729C15.1462 27.1137 15.4853 26.4962 15.8115 25.8739C16.8146 23.966 17.9238 21.4488 16.1808 19.5949C16.0655 19.4716 16.2146 19.2591 16.3649 19.3542C17.5451 20.0986 17.9692 21.3454 17.9285 22.6287C17.9786 22.3387 18.003 22.0534 18.003 21.7775C18.0042 20.715 17.6663 19.7628 17.3226 19.0783C17.1513 18.7366 16.9801 18.4619 16.8531 18.2752C16.789 18.1813 16.7366 18.1108 16.7016 18.0639C16.6841 18.0404 16.6702 18.0228 16.662 18.0122L16.6527 18.0005L16.6515 17.9993C16.5269 17.849 16.521 17.633 16.6375 17.4756C16.754 17.3183 16.9614 17.2631 17.1397 17.3406L17.1444 17.343C17.2073 17.37 17.8283 17.6353 18.6753 17.8901C19.5211 18.146 20.5989 18.3891 21.5496 18.3879C21.9387 18.3879 22.3046 18.348 22.6226 18.2588C23.084 18.132 23.6013 17.8091 24.1908 17.3617C25.0763 16.6925 26.1191 15.7603 27.4834 14.9302C28.8489 14.1001 30.5429 13.3745 32.7251 13.1151C33.3881 13.0364 34.0068 13 34.5835 13C36.8065 13 38.4038 13.5424 39.4862 14.2504C40.0268 14.6038 40.4381 14.9971 40.7352 15.3834C40.9402 15.6511 41.0905 15.9117 41.1919 16.1607H41.2059C43.5535 16.1607 46.2146 16.6444 48.6858 17.8725C51.1558 19.0982 53.4335 21.0789 54.9703 24.0447C56.5315 27.0597 57.276 30.4564 58.0275 33.3716C58.1102 33.6933 58.1929 34.008 58.2768 34.3168C58.0613 34.5857 57.8469 34.8557 57.6325 35.1257C57.2177 33.6746 56.8496 32.079 56.4115 30.4493C55.8639 28.4099 55.2068 26.3248 54.2269 24.4345C52.7764 21.6378 50.6489 19.7898 48.3153 18.6286C45.9827 17.4686 43.4405 17.0036 41.2059 17.0048C41.1033 17.0048 41.0008 17.006 40.9006 17.0083C40.7049 17.0119 40.5324 16.878 40.4858 16.6866C40.4404 16.4941 40.3099 16.2088 40.0734 15.9024C39.3627 14.9819 37.7164 13.8489 34.5835 13.8465C34.0417 13.8465 33.4557 13.8806 32.823 13.9569C31.4552 14.1201 30.3029 14.4747 29.3056 14.9232C27.8085 15.5959 26.6562 16.4859 25.6542 17.2843C25.1532 17.6834 24.6907 18.0592 24.2351 18.3738C23.7796 18.6873 23.3298 18.9409 22.8463 19.0771C22.731 19.1088 22.6145 19.1346 22.4956 19.1558C24.3341 19.0724 26.2367 18.5934 27.9424 18.3292C30.4754 17.9359 34.3971 18.0415 35.5051 20.9556C35.5656 21.1153 35.3548 21.1881 35.2511 21.1047C33.9683 20.0774 32.6308 19.3671 30.9833 19.1335C29.1751 18.8775 27.3832 19.1346 25.5878 19.3765C23.0805 19.7135 20.2668 19.9835 18.0531 18.6673L18.0718 18.7026C18.4539 19.4669 18.8407 20.54 18.8419 21.7822C18.8442 22.9551 18.4865 24.276 17.4764 25.5592C16.7808 26.4457 16.0352 27.4237 15.3047 28.4874C15.2674 28.5485 15.2289 28.6084 15.1917 28.6694C14.6545 29.5535 14.1046 30.4282 13.5582 31.3064C13.3904 31.6117 13.2273 31.9228 13.07 32.2398C11.7709 34.844 10.8377 37.8273 10.8377 41.1993C10.8377 41.3472 10.84 41.4975 10.8435 41.6478C10.9274 45.1255 12.0645 48.7957 13.5629 51.9328C14.312 53.5014 15.1497 54.9385 15.9862 56.1514C16.8216 57.3642 17.6582 58.3551 18.3898 59.0291C18.4749 59.1077 18.5238 59.2157 18.5262 59.3308C18.5285 59.447 18.4854 59.5562 18.4038 59.6384C18.3176 59.7241 18.2302 59.7875 18.1382 59.8521C17.9774 59.9625 17.8015 60.074 17.6209 60.2161C17.3506 60.4297 17.0733 60.7057 16.8554 61.1283C16.6375 61.5522 16.4744 62.1334 16.4744 62.974C16.4744 63.1161 16.4791 63.2663 16.4896 63.4237C16.5245 63.9591 16.6981 64.4557 16.9812 64.9113C17.4065 65.5922 18.0857 66.1722 18.885 66.5773C19.6831 66.9823 20.5977 67.2113 21.4715 67.2101C22.1181 67.2101 22.7415 67.0857 23.2856 66.8274C23.8297 66.5679 24.298 66.1769 24.6545 65.6216C24.7221 65.5159 24.8328 65.4466 24.9563 65.4314C25.0798 65.4161 25.2033 65.4572 25.2942 65.5429C26.683 66.8614 28.8582 67.9545 31.4738 68.7036C32.0074 68.8562 32.5597 68.9947 33.1259 69.1192C32.9232 69.3294 32.7182 69.5372 32.5131 69.745C31.7034 69.5595 30.8994 69.3517 30.0932 69.1544C28.0834 68.4687 26.3567 67.5717 25.0705 66.4728C24.6697 66.9636 24.1804 67.3357 23.6432 67.5905C22.9698 67.911 22.2242 68.0543 21.4715 68.0543C20.1165 68.0531 18.7324 67.594 17.6395 66.8004C17.0943 66.4035 16.6224 65.9198 16.2717 65.3609C15.9222 64.8021 15.6961 64.1657 15.653 63.4777C15.6414 63.3027 15.6367 63.1348 15.6367 62.974C15.6367 62.2496 15.7462 61.6543 15.9257 61.1671C16.1936 60.4333 16.6224 59.9495 17.0104 59.6278C17.1735 59.4928 17.3273 59.3848 17.4589 59.2956C16.7669 58.597 16.0329 57.6953 15.3 56.6327C14.0056 54.7542 12.7193 52.3802 11.7372 49.7925C10.755 47.2048 10.0757 44.4034 10.0082 41.6678C10.0023 41.5104 10 41.3543 10 41.1993C10 37.6688 10.9787 34.5504 12.3197 31.8571Z" fill="#C16B57"/>
<path d="M78.7928 54.9997L80.135 54.1801C80.1909 54.2201 80.2538 54.2623 80.3261 54.3046C80.368 54.3293 80.4135 54.3539 80.4612 54.3774C80.4775 54.3868 80.495 54.3974 80.5113 54.4056C80.7141 54.5077 80.9121 54.5805 81.1137 54.6122C81.1463 54.6169 81.1789 54.6169 81.2115 54.6146C81.3234 54.631 81.4399 54.6404 81.5634 54.6404C81.7533 54.6404 81.9572 54.6193 82.1704 54.5699C82.3067 54.5382 82.4372 54.4807 82.5479 54.3997C82.6586 54.3187 82.7495 54.2165 82.817 54.1038C82.9522 53.8784 83 53.626 83 53.3712C83 53.1352 82.958 52.8933 82.8835 52.6491C82.8089 52.4061 82.7017 52.1607 82.5642 51.9247C82.2893 51.4539 81.8931 51.0124 81.3793 50.7178C81.1813 50.6039 80.9657 50.5135 80.735 50.4548C80.7187 50.2692 80.6931 50.0931 80.6628 49.9358C80.6104 49.6622 80.5474 49.4415 80.4927 49.2912C80.4764 49.2478 80.4612 49.2102 80.4437 49.1715C80.4344 49.1503 80.4239 49.1304 80.4065 49.1034C80.1501 48.6889 79.874 48.3766 79.5781 48.1594C79.302 47.9575 79.0014 47.8424 78.7008 47.8283C78.6437 47.8213 78.5854 47.8166 78.526 47.8177C78.307 47.8177 78.0833 47.8659 77.8607 47.9586C77.8479 47.934 77.8351 47.9093 77.8211 47.8835L77.8095 47.8624C77.6953 47.6264 77.566 47.4056 77.4203 47.2084C77.2071 46.9196 76.9613 46.6754 76.6607 46.5157C76.4894 46.4253 76.303 46.376 76.1201 46.3748C76.1306 46.3325 76.1434 46.2926 76.1527 46.2503C76.2482 45.8335 76.296 45.385 76.296 44.9424C76.296 44.5138 76.2506 44.0888 76.1527 43.699C76.0537 43.3104 75.9045 42.9523 75.668 42.6635C75.5107 42.4721 75.3068 42.3113 75.0622 42.222C74.9224 42.1715 74.7721 42.1445 74.6171 42.1445C74.5332 42.1445 74.4691 42.1645 74.4202 42.1856C74.3701 42.2068 74.3328 42.2302 74.299 42.2537C74.2338 42.3007 74.1849 42.35 74.1348 42.4028C74.0381 42.5085 73.9437 42.6353 73.84 42.7868C73.6338 43.0885 73.3973 43.4865 73.1479 43.9221C72.6516 44.7921 72.1122 45.8147 71.7615 46.4358C71.6624 46.6131 71.5774 46.7564 71.5191 46.8479C71.5028 46.8738 71.4877 46.8961 71.4772 46.9113C71.4422 46.9383 71.4119 46.9712 71.3863 47.0088C71.3828 47.0147 70.4309 48.467 69.0352 50.9091C68.251 52.2816 68.0728 53.6906 68.0297 54.7496C67.9831 55.9143 67.9714 57.0578 68.053 57.3338C68.1345 57.6097 68.8278 57.5827 68.7928 54.9903C68.78 54.0463 69.0678 52.5411 69.761 51.3295C70.975 49.2055 71.8489 47.8389 72.0446 47.5371L72.0609 47.5219C72.097 47.4843 72.1192 47.4549 72.1436 47.4232C72.1891 47.3598 72.2345 47.2882 72.2881 47.2002C72.3941 47.0252 72.5258 46.7904 72.6772 46.5145C72.9802 45.9639 73.36 45.2535 73.7258 44.6031C73.9693 44.1698 74.2058 43.7624 74.4051 43.4536C74.5181 43.2775 74.6194 43.1319 74.6952 43.0392L74.7266 43.0016C74.7429 43.0051 74.7604 43.0087 74.7767 43.0145C74.8245 43.0321 74.8699 43.058 74.9165 43.0955C75.0098 43.1695 75.1076 43.2975 75.1915 43.4771C75.3604 43.834 75.4583 44.3788 75.4571 44.94C75.4571 45.3216 75.4152 45.7114 75.3348 46.0578C75.2556 46.4053 75.1367 46.7106 75.0039 46.9196L75.0028 46.9207C74.9562 46.9677 74.9107 47.017 74.8664 47.0663C74.6218 47.3458 74.4074 47.6675 74.214 47.9739C73.9717 47.7602 73.685 47.59 73.3565 47.4902C73.3006 47.4726 73.2435 47.4643 73.1875 47.4643C73.1002 47.4643 73.0221 47.4843 72.9569 47.5101C72.8904 47.536 72.8357 47.5688 72.7856 47.6041C72.6854 47.6745 72.605 47.7567 72.5246 47.8483C72.3673 48.0314 72.2182 48.258 72.0632 48.514C71.7568 49.0247 71.4411 49.654 71.1579 50.1906C70.9704 50.5463 70.7968 50.8633 70.6674 51.0535C70.6616 51.0629 70.6406 51.0911 70.6139 51.1252C70.5871 51.1592 70.5521 51.2015 70.5125 51.2484C70.4344 51.3412 70.3377 51.4516 70.241 51.5619C70.0464 51.7815 69.8484 51.9999 69.7703 52.0844C69.7482 52.1091 69.7354 52.122 69.7354 52.122C69.5781 52.2934 69.5886 52.5599 69.7575 52.7184C69.9276 52.8769 70.1921 52.8663 70.3494 52.6961C70.3505 52.6949 70.5067 52.5247 70.6977 52.3122C70.8888 52.0985 71.1102 51.8484 71.2523 51.6711C71.2931 51.6195 71.3281 51.5748 71.3595 51.5279C71.4585 51.3811 71.5599 51.2073 71.6671 51.0136C71.7743 50.8199 71.8873 50.6062 72.0026 50.3855C72.2333 49.944 72.4768 49.472 72.7029 49.0811C72.8532 48.8216 72.9976 48.5962 73.1141 48.4529C73.1538 48.4036 73.1887 48.3649 73.2167 48.3379C73.5371 48.4635 73.7864 48.6842 73.9705 48.9789C74.1732 49.3065 74.2886 49.7268 74.2874 50.173C74.2874 50.6438 74.1616 51.1416 73.8971 51.5866C73.8004 51.7486 73.8225 51.9552 73.9507 52.0926C74.0497 52.1983 74.1383 52.3392 74.214 52.5071C74.2886 52.675 74.3491 52.871 74.3946 53.0812C74.4866 53.5015 74.5181 53.9759 74.5169 54.4032C74.5169 55.0795 74.44 55.6348 74.4319 55.69L74.4307 55.6947C74.3957 55.9248 74.553 56.1409 74.7814 56.1761C75.0098 56.2113 75.2241 56.0528 75.2591 55.8227C75.2614 55.8098 75.3546 55.1934 75.3546 54.4044C75.3546 54.0545 75.336 53.6694 75.2812 53.2855C75.2253 52.9016 75.1344 52.5165 74.9783 52.1642C74.9154 52.0245 74.8408 51.8895 74.7546 51.7627C74.8641 51.5384 74.9492 51.3071 75.0097 51.0735C75.1041 51.1698 75.202 51.2602 75.3022 51.3412C75.8463 51.7768 76.4533 52.0022 77.0125 52.0034C77.1291 52.0034 77.2432 51.9916 77.3539 51.9705C77.4739 52.2805 77.6242 52.5599 77.8153 52.7935C77.9877 53.0025 78.1963 53.1775 78.4491 53.2796C78.5924 53.3372 78.7509 53.37 78.9116 53.37C79.0573 53.37 79.2018 53.343 79.3451 53.2937C79.3928 53.3923 79.4499 53.4839 79.5117 53.5708L78.2277 54.3539C78.1439 54.4056 78.0809 54.4842 78.0483 54.5782L78.0471 54.5817L78.0413 54.597C78.0367 54.611 78.0285 54.6322 78.018 54.6603C77.9971 54.7167 77.9656 54.8012 77.9225 54.9069C77.8374 55.1194 77.7081 55.4212 77.5368 55.7734C77.1931 56.4778 76.677 57.3831 76.0024 58.1709C75.5539 58.6969 75.0354 59.1689 74.4598 59.5035C74.4016 59.5375 74.3561 59.5845 74.3212 59.6373L74.2897 59.6115C74.2792 59.6667 74.2653 59.7242 74.2513 59.7841C74.3596 59.8862 74.4668 59.9907 74.5577 60.0999C74.7173 60.087 74.9061 60.067 74.9853 60.0635C75.583 59.6866 76.2051 59.2358 76.6455 58.7215C77.1395 58.1427 77.5462 57.5228 77.8712 56.9522C78.3722 56.0704 78.6775 55.3073 78.7928 54.9997ZM77.5904 50.4923C77.5904 50.5827 77.5869 50.6708 77.5811 50.7553C77.5753 50.834 77.5566 50.8903 77.5345 50.9338C77.5112 50.9772 77.4821 51.0113 77.4413 51.0441C77.3609 51.1075 77.2176 51.1592 77.0207 51.158C76.6945 51.1604 76.2424 51.0113 75.8335 50.6802C75.5655 50.4641 75.3138 50.1718 75.1123 49.7996C75.0692 49.4016 74.9562 49.02 74.7721 48.6772C74.9433 48.4001 75.1251 48.1089 75.3115 47.8612C75.4991 47.6099 75.6937 47.4068 75.8544 47.307C75.9616 47.2389 76.0432 47.2166 76.1096 47.2166C76.1585 47.2166 76.2063 47.226 76.2762 47.2624C76.423 47.3387 76.5919 47.4913 76.7516 47.7097C76.9123 47.9269 77.0626 48.2064 77.1885 48.5152C77.439 49.1351 77.5916 49.8771 77.5904 50.4923ZM80.0651 52.8299C80.3086 52.5857 80.4764 52.2946 80.5812 51.9975C80.6581 51.7791 80.7036 51.5572 80.7292 51.3377C80.9366 51.4199 81.13 51.542 81.3059 51.6946C81.6263 51.9729 81.878 52.3533 82.0213 52.7172C82.118 52.9591 82.1634 53.1927 82.1634 53.37C82.1634 53.478 82.1471 53.5626 82.125 53.6178C82.1028 53.6729 82.0807 53.6964 82.0574 53.714C82.0411 53.7258 82.0213 53.7363 81.984 53.7457C81.8314 53.781 81.6927 53.795 81.5646 53.795C81.2442 53.795 80.9925 53.7046 80.8073 53.606C80.763 53.5814 80.7199 53.5555 80.6756 53.5262C80.629 53.4957 80.5836 53.4604 80.5381 53.4252C80.5067 53.3982 80.4845 53.3771 80.4822 53.3747C80.4601 53.3512 80.4356 53.3313 80.41 53.3137C80.3039 53.2139 80.2107 53.107 80.1467 53.0014C80.1105 52.9415 80.0837 52.8851 80.0651 52.8299ZM79.7925 51.7134C79.7016 51.9658 79.5664 52.1748 79.3567 52.3368C79.1621 52.4859 79.0212 52.5247 78.9175 52.5247C78.865 52.5247 78.8173 52.5153 78.766 52.4942C78.7147 52.473 78.66 52.4401 78.6006 52.3908C78.4841 52.2934 78.3571 52.1278 78.2476 51.9071C78.1951 51.8038 78.1473 51.6875 78.1042 51.5643C78.1683 51.4927 78.2277 51.4163 78.2732 51.3295C78.3547 51.1756 78.4025 51.0019 78.4153 50.8187C78.4235 50.7119 78.427 50.6027 78.427 50.4912C78.427 49.9792 78.3419 49.4333 78.1975 48.9073C78.258 48.8345 78.3209 48.7793 78.3827 48.7418C78.4677 48.6913 78.5481 48.6678 78.6402 48.6678C78.7579 48.6678 78.9058 48.7089 79.0899 48.8416C79.2717 48.973 79.4802 49.1973 79.6923 49.5378L79.6969 49.5495C79.7051 49.5683 79.7156 49.5988 79.7284 49.6364C79.754 49.7127 79.7843 49.8207 79.8123 49.9475C79.8694 50.2023 79.9206 50.5358 79.9195 50.8739C79.9206 51.1674 79.8833 51.461 79.7925 51.7134Z" fill="#C16B57"/>
<path d="M79.8604 49.4483L79.6985 49.5493L80.0539 49.3262L79.8604 49.4483Z" fill="#C16B57"/>
<path d="M39.7259 56.3977C39.7259 56.3977 39.7422 56.3989 39.7771 56.4013C40.0171 56.4154 41.082 56.4729 42.4522 56.4729C43.6266 56.4729 45.027 56.4306 46.3203 56.285C46.9669 56.2122 47.5868 56.1136 48.1355 55.9845C48.6843 55.8553 49.1608 55.6933 49.5161 55.5066C50.1395 55.179 50.6521 54.7622 51.0727 54.3149C51.7042 53.6457 52.1283 52.9072 52.3963 52.3225C52.5302 52.0301 52.6258 51.7765 52.691 51.5887C52.7236 51.4948 52.7481 51.4173 52.7656 51.3597C52.7749 51.3304 52.7819 51.3069 52.7877 51.2869C52.7936 51.2658 52.7982 51.2529 52.804 51.2318C52.8774 51.011 53.114 50.8913 53.3342 50.9652C53.5532 51.0392 53.672 51.2775 53.5998 51.4983C53.5986 51.503 53.5905 51.5288 53.58 51.5628C53.5404 51.6943 53.4553 51.9691 53.3109 52.3225C53.0941 52.8543 52.7423 53.5705 52.1947 54.2903C51.6739 54.9736 50.9713 55.6581 50.0451 56.1758C49.9565 56.3848 49.769 56.7735 49.4462 57.1738C49.2144 57.4615 48.9103 57.755 48.5188 57.9792C48.1285 58.2047 47.6473 58.3561 47.0916 58.355C46.0593 58.3538 44.963 58.0896 44.1113 57.8313C43.3237 57.5906 42.7516 57.3523 42.6631 57.3147C42.5932 57.3147 42.5221 57.3159 42.4534 57.3159C40.8607 57.3159 39.6804 57.2407 39.6746 57.2396C39.4439 57.2243 39.268 57.0247 39.2831 56.7911C39.296 56.5598 39.4952 56.3825 39.7259 56.3977Z" fill="#C16B57"/>
<path d="M49.1321 47.5361C49.3266 47.7956 49.449 48.1208 49.4478 48.4718C49.4478 48.7125 49.3919 48.9603 49.2835 49.2056C49.1752 49.451 49.0156 49.6952 48.8035 49.9406C48.6521 50.1167 48.3876 50.1355 48.2128 49.9829C48.0381 49.8303 48.0194 49.5637 48.1709 49.3876C48.3398 49.1927 48.4505 49.0154 48.5181 48.8628C48.5856 48.7102 48.6101 48.5822 48.6101 48.4718C48.6089 48.3133 48.5623 48.1807 48.4598 48.0409C48.3084 47.8331 48.0136 47.6288 47.6349 47.4903C47.2574 47.3494 46.8054 47.2707 46.3638 47.2719C45.9001 47.2707 45.4515 47.36 45.1183 47.5232C44.9098 47.6253 44.6593 47.5373 44.5591 47.3271C44.4577 47.1169 44.5451 46.8645 44.7537 46.7635C45.2383 46.5287 45.7999 46.4289 46.3638 46.4277C47.0792 46.4289 47.8027 46.5886 48.3864 46.9091C48.68 47.07 48.9387 47.2743 49.1321 47.5361Z" fill="#C16B57"/>
<path d="M45.7323 49.9673C45.8872 49.7935 46.1517 49.7795 46.3241 49.9356C46.4966 50.0918 46.5105 50.3583 46.3556 50.5321L45.8313 51.1191C45.6763 51.2929 45.4119 51.307 45.2394 51.1508C45.067 50.9947 45.053 50.7281 45.208 50.5544L45.7323 49.9673Z" fill="#C16B57"/>
<path d="M29.3411 49.2588C29.2374 49.6556 29.199 50.0583 29.199 50.4458C29.199 51.1502 29.326 51.8065 29.4518 52.2926C29.5776 52.7787 29.7023 53.0933 29.707 53.1051C29.7932 53.3211 30.0378 53.4268 30.2522 53.3387C30.4666 53.2519 30.5703 53.0065 30.4852 52.7904V52.7893L30.4817 52.781C30.4794 52.774 30.4748 52.7623 30.4689 52.7458L30.4596 52.72C30.4491 52.6895 30.4351 52.6519 30.4188 52.6038C30.3769 52.4793 30.3198 52.2985 30.2639 52.0789C30.1497 51.6398 30.0378 51.0457 30.039 50.4446C30.039 50.1135 30.0728 49.7812 30.1532 49.4725C30.1893 49.3351 30.2359 49.2024 30.2918 49.0756C30.1963 49.4678 30.1742 49.8928 30.2464 50.3272C30.4806 51.7291 31.5863 52.7282 32.7945 52.6965C32.8935 52.6942 32.9925 52.6871 33.0927 52.6695C33.4854 52.6026 33.836 52.43 34.1308 52.1811C34.8264 51.5952 35.2015 50.5843 35.0244 49.5182C34.8252 48.3218 33.9887 47.419 32.9972 47.2006C33.1615 47.1794 33.3269 47.1689 33.4935 47.1689C34.259 47.1689 35.0349 47.3849 35.699 47.7759C36.2723 48.1129 36.7581 48.5766 37.0936 49.1355C37.1472 49.2247 37.1973 49.3151 37.2428 49.409C37.3441 49.618 37.5958 49.7049 37.8032 49.6028C38.0106 49.5006 38.0968 49.247 37.9954 49.038C37.583 48.1892 36.9119 47.5117 36.1208 47.0468C35.3285 46.5818 34.4139 46.3259 33.4935 46.3247C32.8271 46.3247 32.156 46.4597 31.5338 46.7544C30.9117 47.0479 30.3396 47.5 29.8782 48.1199C29.6149 48.4709 29.4448 48.8619 29.3411 49.2588ZM33.3083 50.2767C33.3502 49.8775 33.6741 49.5852 34.0306 49.6239C34.3871 49.6627 34.6423 50.0172 34.6003 50.4152C34.5584 50.8144 34.2345 51.1068 33.878 51.068C33.5203 51.0305 33.2652 50.6759 33.3083 50.2767ZM33.0426 49.092C33.0601 48.9253 33.1952 48.8032 33.3444 48.8197C33.4935 48.8361 33.5995 48.984 33.5821 49.1496C33.5646 49.3163 33.4294 49.4384 33.2803 49.422C33.1312 49.4055 33.0251 49.2576 33.0426 49.092Z" fill="#C16B57"/>
<path d="M53.3735 44.4592C54.1378 44.0764 54.6551 43.2182 54.6551 42.1192C54.6551 40.6152 53.6473 39.3965 52.403 39.3965C52.2038 39.3965 52.0115 39.4305 51.8286 39.4892C52.3797 39.1581 53.0089 38.9973 53.6625 38.9973C54.3429 38.9973 55.0454 39.1722 55.6862 39.5033C56.0532 39.6924 56.3981 39.9342 56.7092 40.2219C56.941 40.4356 57.1554 40.6739 57.3418 40.9381C57.4758 41.1283 57.738 41.1717 57.9267 41.0367C58.1155 40.9017 58.1586 40.6375 58.0246 40.4473C57.505 39.7147 56.8245 39.1429 56.0696 38.7531C55.3146 38.3633 54.4862 38.1543 53.6636 38.1543C52.8085 38.1543 51.9568 38.3821 51.2239 38.8752C50.6833 39.238 50.2953 39.69 50.0518 40.182C49.8072 40.6739 49.7058 41.1987 49.7058 41.7094C49.7058 42.2108 49.8025 42.7004 49.961 43.1489C50.1194 43.5974 50.3408 44.0071 50.5994 44.3488C50.7393 44.5343 51.0026 44.5695 51.1866 44.4286C51.2228 44.4005 51.2519 44.3676 51.2764 44.3324C51.6212 44.5543 52.022 44.6799 52.4461 44.6799C52.7793 44.6787 53.0927 44.6001 53.3735 44.4592ZM53.1696 40.7091C53.1522 40.8758 53.017 40.9979 52.8679 40.9815C52.7187 40.9651 52.6127 40.8171 52.6302 40.6516C52.6477 40.4849 52.7828 40.3628 52.932 40.3792C53.0811 40.3945 53.1871 40.5424 53.1696 40.7091ZM53.4656 42.6288C53.1091 42.59 52.8539 42.2354 52.8958 41.8374C52.9378 41.4382 53.2617 41.1459 53.6182 41.1846C53.9747 41.2234 54.2299 41.5779 54.1879 41.976C54.1448 42.374 53.8221 42.6663 53.4656 42.6288Z" fill="#C16B57"/>
<path d="M53.4645 32.3364L53.4629 32.338L53.4645 32.3364Z" fill="#C16B57"/>
<path d="M18.7757 62.1138C19.2243 61.7404 19.7975 61.5044 20.429 61.5044C21.0337 61.5032 21.6768 61.7204 22.3002 62.1819C22.4866 62.3192 22.5273 62.5834 22.3899 62.7724C22.2535 62.9603 21.9914 63.0014 21.8038 62.8628C21.3494 62.5282 20.9312 62.3814 20.5572 62.3544C20.5141 62.4178 20.4733 62.4918 20.4383 62.5752C20.3626 62.7572 20.3137 62.9767 20.288 63.174C20.2612 63.3724 20.2566 63.5485 20.2566 63.6471C20.2566 63.6765 20.2566 63.6988 20.2577 63.714V63.7293V63.7317C20.2694 63.9641 20.0911 64.1626 19.8604 64.1731C19.6298 64.1849 19.4329 64.0052 19.4212 63.7728C19.4212 63.7669 19.4189 63.7211 19.4189 63.6459C19.4189 63.4769 19.4294 63.1599 19.5004 62.8029C19.5144 62.7337 19.5319 62.6632 19.5505 62.5916C19.4666 62.6421 19.3851 62.6985 19.3082 62.763C18.9913 63.0249 18.7431 63.4006 18.6091 63.8221C18.5381 64.044 18.3027 64.1661 18.0825 64.0956C17.8623 64.024 17.7411 63.7868 17.811 63.5649C17.9928 62.9967 18.326 62.4871 18.7757 62.1138Z" fill="#C16B57"/>
<path d="M37.7608 17.9332C37.6676 16.2026 35.278 15.9056 33.9544 15.8739C32.434 15.8375 30.9357 16.1698 29.4595 16.4997C29.3139 16.5326 29.2579 16.3224 29.3977 16.2754C31.3318 15.6285 33.3905 14.9381 35.4586 15.1483C37.0128 15.3068 38.9608 16.0617 38.9131 17.9332C38.8933 18.6835 37.8016 18.6776 37.7608 17.9332Z" fill="#C16B57"/>
<path d="M20.0498 23.9009C20.044 23.7776 20.2432 23.7471 20.2654 23.8716C20.8468 27.0099 19.8797 30.1553 17.6719 32.4424C17.2501 32.8792 16.5767 32.1994 17.0089 31.7744C19.091 29.7291 20.2013 26.8267 20.0498 23.9009Z" fill="#C16B57"/>
<path d="M62.193 74.5557C64.2751 78.7507 65.4145 91.9897 62.0055 98.8723C61.7154 101.104 61.2621 103.038 61.2342 105.553C61.1573 112.622 58.8819 117.334 56.2068 123.705C55.3446 131.035 56.399 136.537 56.9769 137.28C58.0407 138.167 61.1305 140.401 61.7025 141.263C63.7718 141.725 63.6098 143.658 62.5635 144.131C61.3204 144.695 60.3534 144.018 60.3534 144.018C58.9669 144.661 56.7253 143.885 54.9869 143.63C53.2731 143.379 52.4167 143.88 50.3988 143.017C49.4388 142.606 49.673 140.974 49.7627 139.194C49.8524 137.414 46.0367 130.442 45.9831 126.634C45.9283 122.825 45.3178 138.834 45.3178 138.834C45.3178 138.834 46.2115 142.323 46.3233 143.112C47.6352 144.901 46.9152 146.506 45.6301 146.714C44.2879 146.93 39.7603 147.069 38.7269 145.589C37.6935 144.109 38.7386 140.59 39.0625 139.06C38.3925 137.485 35.2934 131.896 35.5753 123.134C35.7396 118.024 32.7546 106.109 33.0657 104.452C33.3768 102.794 35.7559 87.3345 38.3937 81.403L62.193 74.5557Z" fill="#FFD0A9"/>
<path d="M40.2916 83.2222C40.2916 83.2222 37.9451 88.8508 38.2806 92.9037C35.9341 92.3413 35.2083 92.0055 35.2083 92.0055L40.2916 83.2222Z" fill="#EFAD84"/>
<path d="M62.5664 74.3662C62.8658 74.9697 63.1373 75.727 63.3808 76.6076C64.1101 79.2481 64.5901 83.011 64.5913 86.9008C64.5913 89.0893 64.4387 91.3166 64.0868 93.4018C63.7349 95.4881 63.185 97.4324 62.3799 99.0597L62.0048 98.8707L62.4207 98.9258C62.2739 100.054 62.0875 101.098 61.936 102.165C61.7846 103.232 61.6669 104.324 61.6529 105.557C61.6145 109.137 61.0156 112.132 60.0929 115.02C59.1701 117.909 57.927 120.69 56.5929 123.869L56.2073 123.705L56.6232 123.754C56.3925 125.721 56.3005 127.554 56.3005 129.195C56.3005 131.407 56.4683 133.273 56.685 134.643C56.7933 135.327 56.9145 135.889 57.031 136.301C57.0893 136.506 57.1463 136.675 57.1964 136.8C57.2454 136.923 57.2943 137.005 57.3071 137.019L56.9774 137.28L57.2442 136.955C57.5005 137.168 57.892 137.474 58.3394 137.821C59.0117 138.342 59.8121 138.96 60.503 139.532C60.849 139.818 61.1671 140.093 61.4327 140.343C61.5655 140.469 61.6844 140.587 61.7881 140.7C61.8918 140.813 61.9791 140.92 62.0525 141.028L61.7042 141.262L61.7951 140.85C62.4394 140.994 62.9299 141.276 63.2573 141.647C63.5846 142.017 63.7384 142.469 63.7373 142.899C63.7373 143.241 63.6441 143.571 63.474 143.854C63.3039 144.137 63.0522 144.374 62.7376 144.516C62.317 144.707 61.9127 144.778 61.5586 144.776C61.1333 144.776 60.7803 144.678 60.5321 144.578C60.2839 144.478 60.1371 144.377 60.1162 144.364L60.355 144.018L60.5298 144.402C60.0637 144.617 59.5488 144.688 59.0187 144.69C58.3359 144.69 57.6194 144.57 56.918 144.432C56.2166 144.294 55.5292 144.137 54.928 144.049C54.4969 143.985 54.1241 143.972 53.7606 143.972C53.5206 143.972 53.2829 143.978 53.0382 143.978C52.6526 143.978 52.2448 143.963 51.7869 143.883C51.329 143.803 50.8245 143.658 50.2373 143.406C50.03 143.318 49.8529 143.182 49.7177 143.018C49.5138 142.769 49.4031 142.471 49.3391 142.156C49.275 141.84 49.2552 141.5 49.2552 141.138C49.2552 140.527 49.3134 139.856 49.3472 139.174L49.3484 139.131C49.3495 138.966 49.3006 138.677 49.2027 138.321C49.0326 137.697 48.7239 136.858 48.3557 135.912C47.8035 134.491 47.1195 132.822 46.5673 131.19C46.2912 130.373 46.0465 129.565 45.8682 128.798C45.69 128.03 45.577 127.304 45.5665 126.641C45.5641 126.443 45.5595 126.3 45.5537 126.216C45.5525 126.195 45.5513 126.179 45.5502 126.167L45.5478 126.149L45.8205 126.106L45.5607 126.198C45.5478 126.159 45.549 126.152 45.5478 126.149L45.8205 126.106L45.5607 126.198L45.9346 126.066L45.6154 126.302C45.577 126.247 45.5688 126.219 45.5607 126.199L45.9346 126.067L45.6154 126.303L45.9486 126.057L45.7203 126.403C45.6655 126.366 45.6364 126.33 45.6166 126.303L45.9498 126.057L45.7214 126.403L45.9521 126.054V126.474C45.8601 126.475 45.7739 126.439 45.7214 126.403L45.9521 126.054V126.474V126.054L46.1863 126.401C46.1362 126.436 46.0512 126.474 45.9521 126.474V126.054L46.1863 126.401L45.9545 126.058L46.283 126.307C46.2644 126.331 46.2376 126.364 46.1851 126.401L45.9533 126.058L46.2818 126.307L45.9696 126.071L46.3331 126.215C46.325 126.233 46.3168 126.258 46.2818 126.308L45.9696 126.072L46.3331 126.216L46.1001 126.124L46.3459 126.177C46.3448 126.178 46.3459 126.182 46.3331 126.216L46.1001 126.124L46.3459 126.177C46.3459 126.178 46.3413 126.205 46.3366 126.242C46.318 126.394 46.2923 126.721 46.2644 127.157C46.1665 128.689 46.0348 131.617 45.9288 134.158C45.8752 135.428 45.8286 136.602 45.7937 137.46C45.7762 137.888 45.7634 138.237 45.7541 138.479C45.7447 138.72 45.7401 138.854 45.7401 138.855L45.3218 138.839L45.7273 138.733C45.7273 138.735 45.951 139.608 46.1886 140.581C46.3075 141.069 46.4298 141.581 46.5312 142.022C46.5813 142.243 46.6256 142.446 46.6617 142.621C46.6978 142.797 46.7246 142.941 46.7409 143.056L46.3261 143.116L46.6628 142.865C47.1941 143.591 47.4411 144.319 47.4411 144.978C47.4423 145.533 47.2652 146.035 46.9529 146.415C46.643 146.797 46.1991 147.054 45.6993 147.134C45.4605 147.173 45.1459 147.207 44.7742 147.231C44.4037 147.256 43.9773 147.273 43.5229 147.273C42.5908 147.273 41.5434 147.207 40.6148 147.007C40.15 146.907 39.7142 146.774 39.3332 146.589C38.9522 146.404 38.619 146.167 38.3872 145.835C38.1833 145.543 38.0551 145.206 37.9759 144.847C37.8967 144.488 37.8652 144.104 37.8652 143.708C37.8652 142.85 38.0108 141.929 38.181 141.087C38.3511 140.247 38.548 139.484 38.6551 138.976L39.0653 139.064L38.6808 139.231C38.6062 139.054 38.4909 138.81 38.3511 138.507C37.8606 137.445 37.0555 135.677 36.3762 133.281C35.697 130.883 35.1412 127.853 35.1412 124.258C35.1412 123.886 35.147 123.509 35.1599 123.125C35.1645 122.994 35.1657 122.856 35.1657 122.713C35.1657 121.486 35.0096 119.9 34.7731 118.182C34.4177 115.604 33.8829 112.727 33.4367 110.265C33.213 109.034 33.0126 107.906 32.8658 106.967C32.7924 106.498 32.733 106.075 32.6922 105.709C32.6514 105.341 32.627 105.031 32.627 104.776C32.627 104.63 32.6339 104.502 32.6572 104.378C32.6945 104.18 32.7656 103.755 32.8658 103.163C33.2165 101.087 33.919 96.9228 34.8255 92.6233C35.2787 90.4736 35.782 88.2898 36.318 86.3138C36.8551 84.3366 37.4225 82.5684 38.0143 81.237C38.1087 81.0245 38.3569 80.9294 38.5678 81.0245C38.7786 81.1196 38.873 81.3697 38.7786 81.5822C38.1367 83.0251 37.4947 85.0892 36.9005 87.3869C36.0069 90.834 35.2088 94.8107 34.6076 98.0782C34.307 99.7125 34.0542 101.168 33.8631 102.295C33.6709 103.424 33.5415 104.214 33.481 104.537C33.4728 104.577 33.4658 104.664 33.4658 104.779C33.4658 105.048 33.5031 105.467 33.5718 105.986C33.6918 106.896 33.9027 108.121 34.1532 109.511C34.5284 111.597 34.9909 114.055 35.3591 116.41C35.7273 118.767 36.0046 121.016 36.0046 122.716C36.0046 122.867 36.0022 123.013 35.9976 123.156C35.9859 123.53 35.9801 123.899 35.9801 124.262C35.9801 128.271 36.6873 131.55 37.4726 134.016C37.8652 135.249 38.2777 136.277 38.6318 137.092C38.8089 137.499 38.9721 137.854 39.1119 138.155C39.2517 138.456 39.367 138.703 39.4521 138.902C39.4859 138.982 39.4952 139.073 39.4765 139.157C39.3624 139.696 39.169 140.445 39.0047 141.261C38.8392 142.075 38.7052 142.952 38.7052 143.714C38.7052 144.065 38.7332 144.39 38.7961 144.67C38.8579 144.949 38.9522 145.182 39.0746 145.356C39.1899 145.523 39.4008 145.691 39.6991 145.835C40.1453 146.053 40.771 146.21 41.4479 146.304C42.126 146.399 42.8565 146.435 43.5252 146.435C43.9598 146.435 44.3688 146.42 44.7206 146.397C45.0725 146.373 45.3684 146.34 45.5688 146.307C45.8741 146.257 46.1257 146.109 46.3075 145.887C46.4892 145.664 46.6034 145.362 46.6046 144.985C46.6046 144.539 46.438 143.984 45.9906 143.373C45.9498 143.318 45.923 143.25 45.9125 143.182C45.9009 143.1 45.8764 142.964 45.8414 142.798C45.7214 142.213 45.4896 141.247 45.288 140.432C45.1878 140.025 45.0946 139.654 45.027 139.385C44.9595 139.116 44.9164 138.951 44.9164 138.951C44.907 138.912 44.9024 138.868 44.9035 138.828C44.9035 138.828 45.0259 135.631 45.1657 132.433C45.2356 130.834 45.3102 129.235 45.3754 128.033C45.408 127.432 45.4395 126.93 45.4663 126.575C45.4803 126.396 45.4931 126.255 45.5059 126.149C45.5129 126.095 45.5187 126.053 45.528 126.006C45.5339 125.982 45.5385 125.958 45.5548 125.912C45.5653 125.889 45.5746 125.858 45.6131 125.805C45.6329 125.78 45.6609 125.746 45.7144 125.708C45.7657 125.672 45.8519 125.634 45.9521 125.634C46.0465 125.633 46.135 125.669 46.1886 125.707C46.2422 125.744 46.2725 125.78 46.2935 125.808C46.3319 125.863 46.3424 125.896 46.3529 125.921C46.3692 125.966 46.3727 125.99 46.3762 126.013C46.3832 126.052 46.3855 126.084 46.389 126.122C46.3972 126.235 46.403 126.397 46.4065 126.636C46.4182 127.509 46.65 128.616 47.0019 129.797C47.5285 131.571 48.3161 133.516 48.9755 135.197C49.3053 136.038 49.6035 136.814 49.8214 137.478C49.9309 137.811 50.0206 138.115 50.0835 138.391C50.1465 138.666 50.1861 138.911 50.1872 139.138C50.1872 139.168 50.1861 139.196 50.1849 139.224C50.15 139.924 50.094 140.588 50.094 141.146C50.0929 141.584 50.1313 141.954 50.2152 142.202C50.2571 142.326 50.3072 142.419 50.3632 142.486C50.4191 142.553 50.4797 142.6 50.5659 142.637C51.1018 142.866 51.5399 142.991 51.9314 143.059C52.324 143.128 52.6735 143.141 53.0394 143.141C53.2712 143.141 53.5089 143.135 53.7617 143.135C54.1451 143.135 54.5657 143.149 55.0492 143.22C55.6993 143.315 56.3949 143.476 57.0788 143.611C57.7627 143.746 58.4349 143.854 59.0187 143.852C59.473 143.852 59.8692 143.788 60.1802 143.642C60.3154 143.58 60.4727 143.594 60.5939 143.679L60.4424 143.899L60.5915 143.677L60.5939 143.679L60.4424 143.899L60.5915 143.677C60.5985 143.682 60.7022 143.75 60.8735 143.815C61.0447 143.879 61.2813 143.94 61.5574 143.94C61.8044 143.94 62.0828 143.894 62.3928 143.754C62.5407 143.687 62.6666 143.572 62.7563 143.423C62.846 143.274 62.8984 143.093 62.8984 142.907C62.8972 142.672 62.8204 142.434 62.6304 142.217C62.4394 142.001 62.1225 141.797 61.6133 141.683C61.5085 141.659 61.4152 141.595 61.3558 141.505C61.3092 141.435 61.2125 141.318 61.0809 141.184C60.8513 140.948 60.5181 140.65 60.1371 140.33C59.5662 139.85 58.887 139.318 58.2625 138.834C57.638 138.349 57.0718 137.914 56.7106 137.613C56.6873 137.593 56.6663 137.572 56.6477 137.549C56.5545 137.427 56.4904 137.294 56.4217 137.128C56.3051 136.841 56.1921 136.457 56.0826 135.972C55.7541 134.521 55.4628 132.166 55.4628 129.204C55.4628 127.531 55.556 125.665 55.7913 123.664C55.796 123.625 55.8065 123.585 55.8216 123.549C57.1615 120.358 58.393 117.596 59.2959 114.769C60.1989 111.941 60.7768 109.045 60.8152 105.556C60.8292 104.274 60.9515 103.141 61.1065 102.054C61.2615 100.966 61.4467 99.9273 61.59 98.8249C61.5958 98.7779 61.6098 98.7333 61.6308 98.691C62.3858 97.1682 62.9205 95.2956 63.2619 93.2679C63.6045 91.2402 63.7548 89.0564 63.7548 86.9079C63.7548 84.3624 63.5439 81.8651 63.1932 79.7306C63.0184 78.6634 62.8087 77.6865 62.5745 76.8424C62.3415 75.9982 62.0828 75.2855 61.8184 74.7513C61.7147 74.5423 61.7986 74.2887 62.0059 74.1854C62.211 74.0727 62.4627 74.1572 62.5664 74.3662Z" fill="#C16B57"/>
<path d="M41.5228 81.5684C36.4907 86.3117 33.9916 96.9079 33.5092 99.1481C33.705 99.2807 34.0545 99.6071 34.5345 100.411C35.3035 101.701 35.1439 104.308 33.91 104.673C33.8646 104.68 34.2933 106.117 34.3761 106.773C34.6755 107.83 32.8428 108.838 31.6148 107.198C31.6148 107.198 29.7798 108.434 28.6158 107.05C28.6158 107.05 27.4717 107.575 26.4523 106.168C24.1034 105.011 25.1019 100.202 26.8449 98.4847C26.7843 98.3931 26.7284 98.298 26.6841 98.1947C25.2429 75.5582 36.5956 71.2446 36.5956 71.2446C38.3747 70.3875 41.1592 71.5569 41.1592 71.5569L41.5228 81.5684Z" fill="#FFD0A9"/>
<path d="M41.8081 81.8761C40.5941 83.0197 39.5141 84.5378 38.5797 86.2085C37.1769 88.714 36.0969 91.5577 35.3279 93.981C34.5578 96.4043 34.0964 98.4073 33.9181 99.2374L33.5092 99.1482L33.7422 98.7971C34.0102 98.9803 34.3923 99.356 34.8933 100.193C35.0762 100.5 35.2056 100.851 35.2918 101.222C35.378 101.593 35.4211 101.984 35.4211 102.371C35.4199 102.949 35.3279 103.519 35.117 104.008C35.011 104.252 34.8735 104.476 34.6941 104.664C34.5158 104.852 34.2898 105.002 34.0288 105.079C34.0125 105.083 33.988 105.089 33.9706 105.091L33.9111 104.676L34.1313 105.033C34.0847 105.062 34.0276 105.083 33.9717 105.091L33.9123 104.676L34.1325 105.033L33.9135 104.677L34.2805 104.873C34.2572 104.918 34.2141 104.981 34.1325 105.033L33.9135 104.677L34.2805 104.873L33.9205 104.68L34.3236 104.739C34.3189 104.766 34.3143 104.805 34.2805 104.873L33.9205 104.68L34.3236 104.739L33.9507 104.685H34.3282C34.3282 104.697 34.3282 104.712 34.3247 104.739L33.9519 104.685H34.3294H34.0533L34.3282 104.653C34.3282 104.657 34.3294 104.664 34.3294 104.685H34.0533L34.3282 104.653L34.2618 104.662L34.3282 104.652V104.655L34.2618 104.663L34.3282 104.653C34.3282 104.657 34.3364 104.698 34.348 104.75C34.3912 104.935 34.4855 105.292 34.5764 105.663C34.6684 106.038 34.7582 106.424 34.7966 106.721L34.3807 106.775L34.7838 106.659C34.8164 106.774 34.8327 106.891 34.8327 107.008C34.8327 107.221 34.778 107.426 34.6848 107.606C34.5449 107.876 34.3224 108.095 34.0556 108.247C33.7888 108.4 33.4719 108.488 33.1352 108.488C32.8218 108.488 32.4897 108.411 32.1717 108.24C31.8536 108.07 31.5507 107.811 31.2838 107.455L31.6182 107.2L31.8512 107.551C31.8361 107.562 31.6276 107.701 31.3002 107.842C30.9716 107.983 30.523 108.129 30.0162 108.13C29.7331 108.13 29.4302 108.082 29.1331 107.955C28.836 107.828 28.5482 107.62 28.3012 107.326L28.6204 107.053L28.794 107.437C28.7579 107.454 28.4958 107.57 28.0938 107.571C27.8247 107.571 27.4926 107.516 27.1454 107.339C26.7982 107.163 26.444 106.869 26.119 106.419L26.4569 106.17L26.2728 106.55C25.9792 106.405 25.7252 106.21 25.5166 105.979C25.2021 105.633 24.9877 105.209 24.8525 104.751C24.7162 104.293 24.658 103.796 24.658 103.287C24.6591 102.345 24.8584 101.352 25.1916 100.453C25.526 99.5532 25.9885 98.7478 26.5571 98.1854L26.8495 98.4872L26.5011 98.7208C26.4324 98.6163 26.3637 98.5001 26.3054 98.3651C26.2856 98.3193 26.2751 98.2735 26.2716 98.223C26.1854 96.8634 26.1446 95.5684 26.1446 94.3368C26.1435 84.6259 28.6787 78.7507 31.2477 75.3094C33.8168 71.867 36.4009 70.8714 36.4534 70.8514L36.6013 71.2459L36.4207 70.8655C36.9765 70.599 37.587 70.5109 38.1777 70.5098C38.984 70.5109 39.7622 70.6753 40.3448 70.8385C40.9273 71.0017 41.3153 71.1637 41.327 71.1684C41.5402 71.2577 41.6415 71.5054 41.553 71.7203C41.4644 71.9351 41.2186 72.0373 41.0054 71.948L41.0031 71.9469C40.9704 71.9328 40.6011 71.7825 40.071 71.6381C39.5409 71.4925 38.8476 71.3539 38.1789 71.3539C37.6721 71.3539 37.1827 71.4338 36.7831 71.6275L36.7505 71.6416L36.7085 71.5289L36.7516 71.6416H36.7505L36.7085 71.5289L36.7516 71.6416C36.7272 71.651 34.2933 72.5996 31.8617 75.8941C29.4313 79.191 26.9858 84.8454 26.9847 94.3368C26.9847 95.5508 27.0243 96.827 27.1105 98.169L26.6922 98.196L27.0767 98.0269C27.1082 98.0997 27.1501 98.1737 27.2025 98.2523C27.3144 98.4214 27.2899 98.6457 27.1466 98.7877C26.7027 99.2221 26.2786 99.936 25.9803 100.746C25.6797 101.557 25.4992 102.465 25.4992 103.286C25.4992 103.877 25.5935 104.421 25.7834 104.85C25.879 105.064 25.9967 105.251 26.1388 105.407C26.2809 105.563 26.4464 105.691 26.6444 105.789C26.7062 105.819 26.7586 105.863 26.7982 105.919C27.0581 106.276 27.3074 106.471 27.5264 106.583C27.7455 106.693 27.9389 106.723 28.0973 106.725C28.215 106.725 28.3117 106.707 28.3758 106.691C28.4072 106.682 28.4305 106.674 28.4445 106.669L28.4562 106.665L28.462 106.678L28.4562 106.665L28.462 106.678L28.4562 106.665L28.5657 106.921L28.4515 106.667L28.4562 106.665L28.5657 106.921L28.4515 106.667C28.6216 106.588 28.8232 106.634 28.9443 106.779C29.1144 106.979 29.288 107.1 29.4651 107.177C29.6434 107.253 29.8298 107.285 30.0209 107.285C30.3611 107.286 30.7141 107.178 30.9751 107.065C31.1056 107.009 31.2139 106.952 31.2862 106.91C31.3223 106.889 31.3503 106.873 31.3689 106.862L31.3875 106.85L31.391 106.848L31.4458 106.932L31.3899 106.849H31.391L31.4458 106.934L31.3899 106.85C31.5751 106.726 31.8233 106.768 31.9573 106.946C32.1588 107.215 32.3686 107.388 32.5678 107.495C32.7682 107.602 32.9604 107.644 33.1387 107.644C33.3938 107.644 33.621 107.553 33.7737 107.424C33.8506 107.36 33.9076 107.288 33.9438 107.218C33.9799 107.146 33.9974 107.078 33.9974 107.009C33.9974 106.971 33.9927 106.934 33.981 106.892C33.9764 106.876 33.9706 106.848 33.9682 106.83C33.9519 106.699 33.9146 106.507 33.868 106.3C33.7981 105.987 33.7084 105.637 33.6362 105.351C33.6001 105.208 33.5674 105.08 33.543 104.978C33.5313 104.926 33.5208 104.881 33.5127 104.84C33.5092 104.819 33.5045 104.799 33.5022 104.778C33.4987 104.756 33.4952 104.733 33.4952 104.691C33.4964 104.665 33.494 104.636 33.5127 104.567C33.5232 104.531 33.5395 104.482 33.5884 104.417C33.614 104.386 33.649 104.351 33.6956 104.321C33.7422 104.292 33.8005 104.27 33.8564 104.263L33.917 104.68L33.7993 104.275C33.9076 104.243 34.0032 104.184 34.0987 104.085C34.2409 103.938 34.3702 103.698 34.4576 103.397C34.5449 103.098 34.5916 102.742 34.5916 102.379C34.5916 102.055 34.5554 101.724 34.4844 101.422C34.4145 101.121 34.3096 100.847 34.1838 100.637C33.7247 99.8655 33.4067 99.5873 33.2843 99.5063C33.141 99.41 33.0723 99.2362 33.1084 99.066C33.3531 97.933 34.101 94.7078 35.4258 91.1561C36.0887 89.3797 36.8949 87.5223 37.8585 85.8011C38.8232 84.0799 39.9428 82.4949 41.2442 81.268C41.4132 81.1083 41.6788 81.1177 41.8361 81.2879C41.9864 81.4499 41.9771 81.7176 41.8081 81.8761Z" fill="#C16B57"/>
<path d="M32.2216 40.3717C30.3295 40.8343 28.5818 41.9062 27.3049 43.3879C27.1534 43.564 26.8889 43.5828 26.7142 43.4302C26.5394 43.2775 26.5208 43.011 26.6722 42.8349C28.0657 41.2194 29.959 40.0582 32.0235 39.5522C32.2484 39.497 32.4744 39.6355 32.5292 39.8621C32.5839 40.0887 32.4464 40.3165 32.2216 40.3717Z" fill="#C16B57"/>
<path d="M54.5656 32.9803C54.0995 32.9017 53.6277 32.8618 53.1546 32.8618C52.1154 32.8618 51.0761 33.0508 50.1056 33.423C49.8889 33.5063 49.6477 33.396 49.565 33.1788C49.4823 32.9604 49.5918 32.7173 49.8073 32.634C50.8746 32.2254 52.014 32.0176 53.1535 32.0176C53.672 32.0176 54.1916 32.061 54.7031 32.1479C54.9314 32.1866 55.0852 32.4039 55.0468 32.634C55.0107 32.8641 54.7939 33.0191 54.5656 32.9803Z" fill="#C16B57"/>
<path d="M62.3286 84.0007C62.1841 80.2882 61.4722 76.598 60.2244 73.1016C59.8667 72.1001 59.2958 70.9706 58.2531 70.8098C57.434 70.683 56.6755 71.2219 56.0184 71.7314C54.5714 72.855 53.1255 73.9775 51.6785 75.1011C48.4267 77.6254 52.6 78.8112 54.6564 79.6953C57.3676 80.86 59.5999 82.8372 62.3286 84.0007Z" fill="#FFD8BC"/>
<path d="M39.7177 73.1066C40.6312 73.1759 41.4024 74.0588 41.3698 74.9817C41.3372 75.9045 40.5193 76.7252 39.6035 76.7686C38.6878 76.8121 37.8035 76.0865 37.6462 75.1766C37.4237 73.8956 38.7985 72.6264 40.0451 72.9611L39.7177 73.1066Z" fill="#FFD8BC"/>
</g>
</svg>
