<svg width="164" height="33" viewBox="0 0 164 33" fill="none" xmlns="http://www.w3.org/2000/svg">
<g opacity="0.9">
<path d="M16.5 0C16.5 0 7.15723 11.9017 7.15723 17.0572C7.15723 22.2128 11.3436 26.4 16.5 26.4C21.6564 26.4 25.8428 22.2085 25.8428 17.0572C25.8428 11.9059 16.5 0 16.5 0ZM16.5 24.0509C16.2177 24.042 15.9936 23.8107 15.9936 23.5282C15.9936 23.2459 16.2177 23.0146 16.5 23.0058C20.2285 23.0058 23.2669 19.9673 23.2669 16.2389V16.2387C23.2757 15.9566 23.5072 15.7323 23.7895 15.7323C24.0718 15.7323 24.3033 15.9566 24.3121 16.2387C24.3337 20.5545 20.8156 24.0508 16.5001 24.0508L16.5 24.0509Z" fill="#E4A65B"/>
</g>
<g opacity="0.9">
<path d="M49.5 0C49.5 0 40.1572 11.9017 40.1572 17.0572C40.1572 22.2128 44.3436 26.4 49.5 26.4C54.6564 26.4 58.8428 22.2085 58.8428 17.0572C58.8428 11.9059 49.5 0 49.5 0ZM49.5 24.0509C49.2177 24.042 48.9936 23.8107 48.9936 23.5282C48.9936 23.2459 49.2177 23.0146 49.5 23.0058C53.2285 23.0058 56.2669 19.9673 56.2669 16.2389V16.2387C56.2757 15.9566 56.5072 15.7323 56.7895 15.7323C57.0718 15.7323 57.3033 15.9566 57.3121 16.2387C57.3337 20.5545 53.8156 24.0508 49.5001 24.0508L49.5 24.0509Z" fill="#E4A65B"/>
</g>
<g opacity="0.9">
<path d="M82.0001 0C82.0001 0 72.9404 11.9017 72.9404 17.0572C72.9404 22.2128 76.9999 26.4 82.0001 26.4C87.0003 26.4 91.0597 22.2085 91.0597 17.0572C91.0597 11.9059 82.0001 0 82.0001 0ZM82.0001 24.0509C81.7263 24.042 81.509 23.8107 81.509 23.5282C81.509 23.2459 81.7263 23.0146 82.0001 23.0058C85.6156 23.0058 88.5619 19.9673 88.5619 16.2389V16.2387C88.5705 15.9566 88.795 15.7323 89.0687 15.7323C89.3425 15.7323 89.5669 15.9566 89.5755 16.2387C89.5964 20.5545 86.185 24.0508 82.0002 24.0508L82.0001 24.0509Z" fill="#E4A65B"/>
</g>
<g opacity="0.9">
<path d="M114.5 0C114.5 0 105.157 11.9017 105.157 17.0572C105.157 22.2128 109.344 26.4 114.5 26.4C119.656 26.4 123.843 22.2085 123.843 17.0572C123.843 11.9059 114.5 0 114.5 0ZM114.5 24.0509C114.218 24.042 113.994 23.8107 113.994 23.5282C113.994 23.2459 114.218 23.0146 114.5 23.0058C118.229 23.0058 121.267 19.9673 121.267 16.2389V16.2387C121.276 15.9566 121.507 15.7323 121.79 15.7323C122.072 15.7323 122.303 15.9566 122.312 16.2387C122.334 20.5545 118.816 24.0508 114.5 24.0508L114.5 24.0509Z" fill="#E4A65B"/>
</g>
<g opacity="0.9">
<path d="M147.5 0C147.5 0 138.157 11.9017 138.157 17.0572C138.157 22.2128 142.344 26.4 147.5 26.4C152.656 26.4 156.843 22.2085 156.843 17.0572C156.843 11.9059 147.5 0 147.5 0ZM147.5 24.0509C147.218 24.042 146.994 23.8107 146.994 23.5282C146.994 23.2459 147.218 23.0146 147.5 23.0058C151.229 23.0058 154.267 19.9673 154.267 16.2389V16.2387C154.276 15.9566 154.507 15.7323 154.79 15.7323C155.072 15.7323 155.303 15.9566 155.312 16.2387C155.334 20.5545 151.816 24.0508 147.5 24.0508L147.5 24.0509Z" fill="#E4A65B"/>
</g>
</svg>
