<svg width="162" height="61" viewBox="0 0 162 61" fill="none" xmlns="http://www.w3.org/2000/svg">
<path d="M16.5 34C16.5 34 7.15723 45.9017 7.15723 51.0572C7.15723 56.2128 11.3436 60.4 16.5 60.4C21.6564 60.4 25.8428 56.2085 25.8428 51.0572C25.8428 45.9059 16.5 34 16.5 34ZM16.5 58.0509C16.2177 58.042 15.9936 57.8107 15.9936 57.5282C15.9936 57.2459 16.2177 57.0146 16.5 57.0058C20.2285 57.0058 23.2669 53.9673 23.2669 50.2389V50.2387C23.2757 49.9566 23.5072 49.7323 23.7895 49.7323C24.0718 49.7323 24.3033 49.9566 24.3121 50.2387C24.3337 54.5545 20.8156 58.0508 16.5001 58.0508L16.5 58.0509Z" fill="#FF7A7D"/>
<path d="M49.5 34C49.5 34 40.1572 45.9017 40.1572 51.0572C40.1572 56.2128 44.3436 60.4 49.5 60.4C54.6564 60.4 58.8428 56.2085 58.8428 51.0572C58.8428 45.9059 49.5 34 49.5 34ZM49.5 58.0509C49.2177 58.042 48.9936 57.8107 48.9936 57.5282C48.9936 57.2459 49.2177 57.0146 49.5 57.0058C53.2285 57.0058 56.2669 53.9673 56.2669 50.2389V50.2387C56.2757 49.9566 56.5072 49.7323 56.7895 49.7323C57.0718 49.7323 57.3033 49.9566 57.3121 50.2387C57.3337 54.5545 53.8156 58.0508 49.5001 58.0508L49.5 58.0509Z" fill="#FF7A7D"/>
<path d="M82.0001 34C82.0001 34 72.9404 45.9017 72.9404 51.0572C72.9404 56.2128 76.9999 60.4 82.0001 60.4C87.0003 60.4 91.0597 56.2085 91.0597 51.0572C91.0597 45.9059 82.0001 34 82.0001 34ZM82.0001 58.0509C81.7263 58.042 81.509 57.8107 81.509 57.5282C81.509 57.2459 81.7263 57.0146 82.0001 57.0058C85.6156 57.0058 88.5619 53.9673 88.5619 50.2389V50.2387C88.5705 49.9566 88.795 49.7323 89.0687 49.7323C89.3425 49.7323 89.5669 49.9566 89.5755 50.2387C89.5964 54.5545 86.185 58.0508 82.0002 58.0508L82.0001 58.0509Z" fill="#FF7A7D"/>
<path d="M115 34C115 34 105.94 45.9017 105.94 51.0572C105.94 56.2128 110 60.4 115 60.4C120 60.4 124.06 56.2085 124.06 51.0572C124.06 45.9059 115 34 115 34ZM115 58.0509C114.726 58.042 114.509 57.8107 114.509 57.5282C114.509 57.2459 114.726 57.0146 115 57.0058C118.616 57.0058 121.562 53.9673 121.562 50.2389V50.2387C121.57 49.9566 121.795 49.7323 122.069 49.7323C122.342 49.7323 122.567 49.9566 122.575 50.2387C122.596 54.5545 119.185 58.0508 115 58.0508L115 58.0509Z" fill="#FF7A7D"/>
<path d="M146 34C146 34 136.94 45.9017 136.94 51.0572C136.94 56.2128 141 60.4 146 60.4C151 60.4 155.06 56.2085 155.06 51.0572C155.06 45.9059 146 34 146 34ZM146 58.0509C145.726 58.042 145.509 57.8107 145.509 57.5282C145.509 57.2459 145.726 57.0146 146 57.0058C149.616 57.0058 152.562 53.9673 152.562 50.2389V50.2387C152.57 49.9566 152.795 49.7323 153.069 49.7323C153.342 49.7323 153.567 49.9566 153.575 50.2387C153.596 54.5545 150.185 58.0508 146 58.0508L146 58.0509Z" fill="#FF7A7D"/>
<g opacity="0.9">
<path d="M16.5 0C16.5 0 7.15723 11.9017 7.15723 17.0572C7.15723 22.2128 11.3436 26.4 16.5 26.4C21.6564 26.4 25.8428 22.2085 25.8428 17.0572C25.8428 11.9059 16.5 0 16.5 0ZM16.5 24.0509C16.2177 24.042 15.9936 23.8107 15.9936 23.5282C15.9936 23.2459 16.2177 23.0146 16.5 23.0058C20.2285 23.0058 23.2669 19.9673 23.2669 16.2389V16.2387C23.2757 15.9566 23.5072 15.7323 23.7895 15.7323C24.0718 15.7323 24.3033 15.9566 24.3121 16.2387C24.3337 20.5545 20.8156 24.0508 16.5001 24.0508L16.5 24.0509Z" fill="#FF7A7D"/>
</g>
<g opacity="0.9">
<path d="M49.5 0C49.5 0 40.1572 11.9017 40.1572 17.0572C40.1572 22.2128 44.3436 26.4 49.5 26.4C54.6564 26.4 58.8428 22.2085 58.8428 17.0572C58.8428 11.9059 49.5 0 49.5 0ZM49.5 24.0509C49.2177 24.042 48.9936 23.8107 48.9936 23.5282C48.9936 23.2459 49.2177 23.0146 49.5 23.0058C53.2285 23.0058 56.2669 19.9673 56.2669 16.2389V16.2387C56.2757 15.9566 56.5072 15.7323 56.7895 15.7323C57.0718 15.7323 57.3033 15.9566 57.3121 16.2387C57.3337 20.5545 53.8156 24.0508 49.5001 24.0508L49.5 24.0509Z" fill="#FF7A7D"/>
</g>
<g opacity="0.9">
<path d="M82.0001 0C82.0001 0 72.9404 11.9017 72.9404 17.0572C72.9404 22.2128 76.9999 26.4 82.0001 26.4C87.0003 26.4 91.0597 22.2085 91.0597 17.0572C91.0597 11.9059 82.0001 0 82.0001 0ZM82.0001 24.0509C81.7263 24.042 81.509 23.8107 81.509 23.5282C81.509 23.2459 81.7263 23.0146 82.0001 23.0058C85.6156 23.0058 88.5619 19.9673 88.5619 16.2389V16.2387C88.5705 15.9566 88.795 15.7323 89.0687 15.7323C89.3425 15.7323 89.5669 15.9566 89.5755 16.2387C89.5964 20.5545 86.185 24.0508 82.0002 24.0508L82.0001 24.0509Z" fill="#FF7A7D"/>
</g>
<g opacity="0.9">
<path d="M115 0C115 0 105.94 11.9017 105.94 17.0572C105.94 22.2128 110 26.4 115 26.4C120 26.4 124.06 22.2085 124.06 17.0572C124.06 11.9059 115 0 115 0ZM115 24.0509C114.726 24.042 114.509 23.8107 114.509 23.5282C114.509 23.2459 114.726 23.0146 115 23.0058C118.616 23.0058 121.562 19.9673 121.562 16.2389V16.2387C121.57 15.9566 121.795 15.7323 122.069 15.7323C122.342 15.7323 122.567 15.9566 122.575 16.2387C122.596 20.5545 119.185 24.0508 115 24.0508L115 24.0509Z" fill="#FF7A7D"/>
</g>
<g opacity="0.9">
<path d="M146 0C146 0 136.94 11.9017 136.94 17.0572C136.94 22.2128 141 26.4 146 26.4C151 26.4 155.06 22.2085 155.06 17.0572C155.06 11.9059 146 0 146 0ZM146 24.0509C145.726 24.042 145.509 23.8107 145.509 23.5282C145.509 23.2459 145.726 23.0146 146 23.0058C149.616 23.0058 152.562 19.9673 152.562 16.2389V16.2387C152.57 15.9566 152.795 15.7323 153.069 15.7323C153.342 15.7323 153.567 15.9566 153.575 16.2387C153.596 20.5545 150.185 24.0508 146 24.0508L146 24.0509Z" fill="#FF7A7D"/>
</g>
</svg>
