<svg width="219" height="830" viewBox="0 0 219 830" fill="none" xmlns="http://www.w3.org/2000/svg">
<g opacity="0.3">
<path d="M163.508 202.538C167.016 204.073 169.648 206.266 171.182 209.994C172.717 213.941 172.717 218.326 170.525 221.835C169.209 224.028 167.235 226.221 165.043 227.536C160.218 233.018 151.885 234.992 145.307 230.826C143.772 229.729 142.237 228.633 141.141 227.098C140.044 226.44 139.167 225.344 138.509 224.466C138.071 223.809 137.851 223.151 137.632 222.493C136.097 220.081 135.001 217.011 135.22 213.941C135.439 206.704 141.36 199.906 148.377 198.371C153.859 197.275 159.56 198.81 163.508 202.538Z" fill="white"/>
<path d="M140.702 151.664C142.456 155.392 143.333 159.12 142.675 163.286C142.237 166.137 141.579 168.549 140.044 170.961C136.535 176.663 130.176 180.391 123.378 180.171C122.282 180.171 121.405 179.952 120.528 179.733C119.87 179.733 119.212 179.514 118.554 179.294C116.361 178.856 114.168 177.54 112.414 176.005C110.441 174.47 108.686 172.716 107.371 170.523C105.616 167.892 104.739 164.602 104.958 161.313C104.958 160.217 105.178 159.339 105.397 158.243C105.616 157.366 105.616 156.489 105.836 155.611C106.713 152.322 108.686 149.252 111.098 146.84C113.511 144.428 116.581 142.674 119.87 141.797C127.545 140.481 137.193 144.428 140.702 151.664Z" fill="white"/>
<path d="M99.0378 209.117C110.002 209.555 117.677 217.669 118.335 228.414C118.554 232.141 118.773 236.089 119.212 239.816C119.651 244.641 117.238 249.465 113.73 252.973C113.511 253.851 113.072 254.508 112.414 255.386C110.002 259.113 106.713 261.964 102.327 263.061C98.1607 264.157 93.1172 263.499 89.3893 261.306C84.7844 258.456 82.3722 254.289 81.4951 249.465C81.0565 249.026 80.618 248.369 80.3987 247.93C74.9166 239.816 75.7937 229.071 81.4951 221.835C82.3722 219.204 83.6879 216.792 85.8808 214.599C88.7315 211.529 94.2136 208.897 99.0378 209.117Z" fill="white"/>
<path d="M52.3303 132.367C57.8124 133.683 62.8559 136.534 67.0223 140.7C73.6008 147.279 78.2058 157.146 78.2058 166.356C78.2058 173.812 75.7937 180.39 72.0658 185.653C68.1187 191.574 62.4173 196.398 54.9617 198.372C52.9881 198.81 51.0145 199.249 49.041 199.468C43.7782 200.345 38.0768 199.907 32.5947 197.933C15.0519 192.013 -0.0787048 174.25 6.28054 154.515C12.6398 134.779 33.4718 124.473 52.3303 132.367Z" fill="white"/>
<path d="M105.178 84.5631C106.055 84.7824 106.932 85.0017 107.809 85.221C118.554 86.9752 124.914 100.132 119.212 109.781C117.458 112.851 115.265 115.701 112.853 118.333C112.195 119.21 111.318 120.087 110.441 120.745C108.248 122.719 105.616 124.692 102.766 125.131C101.012 125.569 99.2572 125.569 97.503 125.789C95.0908 126.008 91.8016 124.911 89.828 123.596C86.9773 121.841 84.7845 119.21 83.4688 116.14C83.0302 114.824 82.5916 113.509 82.3723 112.412C81.9338 111.535 81.2759 110.658 81.0566 109.781C79.5216 106.053 78.8638 101.667 80.1795 97.7202C81.7145 93.3345 84.3459 88.7295 88.7316 86.5366C90.4859 85.6595 92.4594 84.7824 94.433 84.1245C98.3801 83.4667 101.231 83.9053 105.178 84.5631Z" fill="white"/>
<path d="M46.1904 244.202C46.4097 244.202 46.4097 244.422 46.629 244.422H46.8482C50.7954 245.299 54.3039 247.272 56.0582 251.22C57.3739 253.193 58.0317 255.605 58.0317 258.017C57.8125 266.35 50.7954 272.709 42.6818 272.709C37.419 272.709 32.5948 270.517 28.8669 267.227C27.7705 266.131 26.8934 265.034 26.2355 263.719C26.0162 263.499 26.0162 263.499 25.7969 263.28C24.0427 261.307 22.9463 259.114 22.5077 256.482C21.6305 250.781 25.3584 245.08 31.0598 243.545C32.5948 243.106 34.349 242.887 36.1033 242.667C39.1733 242.01 42.9011 242.448 46.1904 244.202Z" fill="white"/>
<path d="M158.683 287.401C163.507 287.182 167.893 288.936 171.182 292.006C173.375 293.322 175.349 295.076 176.884 297.707C178.857 301.216 179.735 306.479 178.638 310.426C178.2 311.522 177.761 312.619 177.322 313.496C176.226 317.224 174.033 320.294 170.744 322.925C168.77 324.679 166.577 325.776 163.946 326.434C162.192 326.872 160.437 327.092 158.683 327.092C157.148 327.092 155.613 326.872 154.078 326.434H153.859C149.254 325.776 144.649 324.679 141.36 320.952C138.509 317.882 136.755 314.154 136.097 309.987C134.781 300.558 140.483 291.568 149.912 288.936C151.228 288.498 152.543 288.278 153.64 288.278C154.955 287.84 156.49 287.62 158.025 287.62C158.025 287.401 158.464 287.401 158.683 287.401Z" fill="white"/>
<path d="M90.7051 301.436C91.1437 301.655 91.363 301.655 91.8015 301.874C96.1872 304.506 100.134 309.988 99.4765 315.251V315.47C99.0379 319.198 98.3801 322.268 95.968 325.118C93.5558 328.188 91.1437 329.504 87.6351 330.82C83.688 332.355 78.6445 331.478 74.9167 329.943C70.7503 328.188 67.6803 325.776 65.2681 322.048C61.5403 316.347 61.1017 309.549 62.856 303.19C64.1717 298.146 68.1188 293.98 73.1624 292.664C80.3988 291.349 87.6351 294.857 90.7051 301.436Z" fill="white"/>
<path d="M176.226 51.8899C179.077 52.5478 181.489 53.8635 183.462 55.837C185.874 57.372 187.629 59.3457 188.944 61.9771C190.479 64.3892 191.356 67.0205 191.576 70.0905C192.234 72.9412 192.014 75.792 191.137 78.6427C190.041 82.3705 188.286 85.4404 185.655 88.0719C182.366 90.9225 179.954 92.6769 175.568 93.9926C167.893 95.9661 159.999 93.7733 154.297 88.2912C152.105 86.3177 150.789 84.1247 149.912 81.4933C148.596 78.8619 147.938 76.2305 148.157 73.1605C148.377 71.187 148.596 69.4328 148.815 67.4592C149.473 64.6085 150.789 62.1963 152.543 60.2227C153.42 58.6877 154.736 57.372 156.49 56.2756C158.464 54.5213 160.876 53.2056 163.727 52.5478C164.165 52.3285 164.384 52.3286 164.823 52.1093C168.551 50.7936 172.498 50.7935 176.226 51.8899Z" fill="white"/>
<path d="M183.243 133.683C184.12 133.683 184.778 133.902 185.655 133.902C186.751 134.121 187.848 134.56 188.725 134.999C188.944 134.999 189.383 134.998 189.602 135.218C193.111 136.095 196.181 138.288 198.374 141.138C199.47 142.235 200.128 143.331 200.566 144.866C201.224 146.182 201.663 147.498 201.663 149.033C202.101 150.568 202.101 152.103 201.663 153.418C201.663 155.611 201.005 157.804 199.689 159.778C199.251 160.435 198.812 161.093 198.374 161.751C197.496 163.067 196.4 164.383 195.304 165.479C193.549 167.233 192.014 168.11 190.479 168.988C190.479 168.988 190.479 168.988 190.699 168.988C190.479 168.988 190.479 169.207 190.26 169.207C188.725 169.865 187.19 170.523 185.655 171.18C183.024 172.058 180.611 172.058 177.98 171.619C176.226 171.619 174.691 171.18 173.156 170.303C170.744 169.426 168.77 168.11 167.016 166.356C164.384 163.725 162.63 160.655 161.534 156.927C159.56 150.568 161.753 143.331 166.358 138.726C168.77 136.314 171.402 134.779 174.691 133.902C177.322 133.244 180.173 133.025 183.243 133.683Z" fill="white"/>
<path d="M46.6291 53.6442C48.3833 54.5214 49.699 55.6178 50.7955 56.9335C53.8654 60.4421 55.839 64.1699 56.4968 68.9941C57.5933 77.5462 53.2076 86.537 45.5326 90.4841C39.612 95.7469 31.937 98.8169 23.8235 98.8169C17.9028 98.8169 11.5436 96.1854 7.37716 92.019C5.84216 90.484 4.52647 88.5105 3.43005 86.5369C2.33363 84.7826 1.45648 82.5899 0.798626 80.6163C-1.39422 72.2835 1.01791 63.7314 6.93859 57.5915C11.7628 52.5479 18.1221 50.7936 24.4813 49.0393C31.937 46.4079 40.7084 48.3814 46.6291 53.6442Z" fill="white"/>
<path d="M144.43 352.09C146.842 353.406 148.815 355.16 150.35 357.572C152.105 359.546 153.42 361.958 154.078 364.809C154.298 366.563 154.517 368.536 154.736 370.291C154.736 374.019 153.859 377.527 151.885 380.816C151.885 381.036 151.885 381.036 151.666 381.255C150.57 382.79 149.473 384.106 148.377 385.641C146.842 386.737 145.526 387.833 143.991 388.93C142.237 389.588 140.483 390.465 138.948 391.123C136.535 391.561 133.904 392 131.492 392C130.834 392 130.176 392 129.518 392C128.422 392 127.106 391.781 126.01 391.561C124.036 391.561 122.282 391.123 120.747 390.026C119.87 389.588 118.773 389.149 117.896 388.711C114.826 386.956 112.195 384.325 110.441 381.255C109.564 379.501 108.686 377.746 108.248 375.992V375.773C107.809 374.457 107.809 372.922 107.59 371.606C107.59 371.387 107.59 370.949 107.371 370.729C107.59 368.975 107.809 367.221 108.029 365.466C108.248 365.247 108.248 364.809 108.467 364.589C108.906 363.493 109.344 362.397 109.783 361.519C109.783 361.3 110.002 361.081 110.002 360.862C110.441 359.984 111.098 359.327 111.537 358.449C111.756 358.23 111.756 358.011 111.976 358.011C111.976 357.792 112.195 357.792 112.195 357.572C114.826 354.283 118.335 351.871 122.501 350.994C123.598 350.774 124.694 350.555 126.01 350.336C126.229 350.336 126.668 350.117 126.887 350.117C133.027 348.362 139.386 349.02 144.43 352.09Z" fill="white"/>
<path d="M197.935 229.949C203.856 231.922 209.338 234.992 212.627 240.255C213.504 241.351 214.381 242.448 215.039 243.544C215.697 245.298 216.574 247.053 217.232 248.807C217.451 250.781 217.671 252.754 218.109 254.728C218.329 257.798 217.671 260.648 216.136 263.28C215.697 265.253 214.601 266.788 213.285 268.104C212.408 269.858 211.092 271.174 209.338 272.051C208.022 273.367 206.268 274.463 204.514 274.902C202.759 275.779 200.786 276.437 198.812 276.656C197.058 277.533 195.304 277.972 193.33 277.972C192.014 278.41 190.699 278.41 189.383 278.41C187.19 278.191 184.997 277.753 182.804 277.533C179.515 276.875 176.884 275.34 174.472 273.148C172.717 272.051 171.182 270.516 170.086 268.762C167.893 266.35 166.358 263.499 165.7 260.429C164.823 256.043 164.823 251.658 165.7 247.272C166.358 243.983 167.893 241.351 170.086 238.939C171.84 236.308 174.033 234.115 176.884 232.58C183.243 228.852 191.137 227.756 197.935 229.949Z" fill="white"/>
<path d="M118.554 1.01601C122.721 2.11244 126.668 4.52462 129.738 7.37532C134.562 11.761 136.755 18.5588 136.974 24.9181C137.193 32.3737 134.123 39.8294 128.861 45.3115C125.791 48.3815 121.186 51.4514 117.019 52.5478C111.756 53.8635 107.151 53.425 102.108 52.3286C97.0644 51.2322 91.1437 46.6272 88.7315 42.0222C88.0737 40.2679 87.1965 38.5137 86.5387 36.7595C85.6616 33.6895 85.4423 30.8387 86.1001 27.7687C86.3194 25.7952 86.9773 23.8216 87.6351 21.848C87.8544 18.5588 88.7315 15.0503 90.4858 12.1996C91.1437 11.1032 92.0208 10.0068 92.8979 8.91033C93.1172 8.69105 93.1172 8.47174 93.3365 8.47174C93.7751 7.81388 94.4329 7.37534 94.8715 6.71749C94.6522 6.93677 94.6522 7.15609 94.4329 7.15609C97.2836 4.08611 101.011 1.67392 105.397 0.796783C110.002 -0.299637 113.511 -0.29969 118.554 1.01601Z" fill="white"/>
</g>
<g opacity="0.3">
<path d="M163.508 640.538C167.016 642.073 169.648 644.266 171.182 647.994C172.717 651.941 172.717 656.326 170.525 659.835C169.209 662.028 167.235 664.221 165.043 665.536C160.218 671.018 151.885 672.992 145.307 668.826C143.772 667.729 142.237 666.633 141.141 665.098C140.044 664.44 139.167 663.344 138.509 662.466C138.071 661.809 137.851 661.151 137.632 660.493C136.097 658.081 135.001 655.011 135.22 651.941C135.439 644.704 141.36 637.907 148.377 636.372C153.859 635.275 159.56 636.81 163.508 640.538Z" fill="white"/>
<path d="M140.702 589.664C142.456 593.392 143.333 597.12 142.675 601.286C142.237 604.137 141.579 606.549 140.044 608.961C136.535 614.663 130.176 618.391 123.378 618.171C122.282 618.171 121.405 617.952 120.528 617.733C119.87 617.733 119.212 617.514 118.554 617.294C116.361 616.856 114.168 615.54 112.414 614.005C110.441 612.47 108.686 610.716 107.371 608.523C105.616 605.892 104.739 602.602 104.958 599.313C104.958 598.217 105.178 597.339 105.397 596.243C105.616 595.366 105.616 594.489 105.836 593.611C106.713 590.322 108.686 587.252 111.098 584.84C113.511 582.428 116.581 580.674 119.87 579.797C127.545 578.481 137.193 582.428 140.702 589.664Z" fill="white"/>
<path d="M99.0378 647.117C110.002 647.555 117.677 655.669 118.335 666.414C118.554 670.141 118.773 674.089 119.212 677.816C119.651 682.641 117.238 687.465 113.73 690.973C113.511 691.851 113.072 692.508 112.414 693.386C110.002 697.113 106.713 699.964 102.327 701.061C98.1607 702.157 93.1172 701.499 89.3893 699.306C84.7844 696.456 82.3722 692.289 81.4951 687.465C81.0565 687.026 80.618 686.369 80.3987 685.93C74.9166 677.816 75.7937 667.071 81.4951 659.835C82.3722 657.204 83.6879 654.792 85.8808 652.599C88.7315 649.529 94.2136 646.897 99.0378 647.117Z" fill="white"/>
<path d="M52.3303 570.367C57.8124 571.683 62.8559 574.534 67.0223 578.7C73.6008 585.279 78.2058 595.146 78.2058 604.356C78.2058 611.812 75.7937 618.391 72.0658 623.653C68.1187 629.574 62.4173 634.398 54.9617 636.372C52.9881 636.81 51.0145 637.249 49.041 637.468C43.7782 638.345 38.0768 637.907 32.5947 635.933C15.0519 630.013 -0.0787048 612.251 6.28054 592.515C12.6398 572.779 33.4718 562.473 52.3303 570.367Z" fill="white"/>
<path d="M105.178 522.563C106.055 522.782 106.932 523.002 107.809 523.221C118.554 524.975 124.914 538.132 119.212 547.781C117.458 550.851 115.265 553.701 112.853 556.333C112.195 557.21 111.318 558.087 110.441 558.745C108.248 560.719 105.616 562.692 102.766 563.131C101.012 563.569 99.2572 563.569 97.503 563.789C95.0908 564.008 91.8016 562.911 89.828 561.596C86.9773 559.841 84.7845 557.21 83.4688 554.14C83.0302 552.824 82.5916 551.509 82.3723 550.412C81.9338 549.535 81.2759 548.658 81.0566 547.781C79.5216 544.053 78.8638 539.667 80.1795 535.72C81.7145 531.335 84.3459 526.729 88.7316 524.537C90.4859 523.659 92.4594 522.782 94.433 522.125C98.3801 521.467 101.231 521.905 105.178 522.563Z" fill="white"/>
<path d="M46.1904 682.203C46.4097 682.203 46.4097 682.422 46.629 682.422H46.8482C50.7954 683.299 54.3039 685.273 56.0582 689.22C57.3739 691.193 58.0317 693.605 58.0317 696.017C57.8125 704.35 50.7954 710.709 42.6818 710.709C37.419 710.709 32.5948 708.517 28.8669 705.227C27.7705 704.131 26.8934 703.035 26.2355 701.719C26.0162 701.5 26.0162 701.5 25.7969 701.28C24.0427 699.307 22.9463 697.114 22.5077 694.482C21.6305 688.781 25.3584 683.08 31.0598 681.545C32.5948 681.106 34.349 680.887 36.1033 680.667C39.1733 680.01 42.9011 680.448 46.1904 682.203Z" fill="white"/>
<path d="M158.683 725.401C163.507 725.182 167.893 726.936 171.182 730.006C173.375 731.322 175.349 733.076 176.884 735.707C178.857 739.216 179.735 744.479 178.638 748.426C178.2 749.522 177.761 750.619 177.322 751.496C176.226 755.224 174.033 758.294 170.744 760.925C168.77 762.679 166.577 763.776 163.946 764.434C162.192 764.872 160.437 765.092 158.683 765.092C157.148 765.092 155.613 764.872 154.078 764.434H153.859C149.254 763.776 144.649 762.679 141.36 758.952C138.509 755.882 136.755 752.154 136.097 747.987C134.781 738.558 140.483 729.568 149.912 726.936C151.228 726.498 152.543 726.278 153.64 726.278C154.955 725.84 156.49 725.62 158.025 725.62C158.025 725.401 158.464 725.401 158.683 725.401Z" fill="white"/>
<path d="M90.7051 739.436C91.1437 739.655 91.363 739.655 91.8015 739.874C96.1872 742.506 100.134 747.988 99.4765 753.251V753.47C99.0379 757.198 98.3801 760.268 95.968 763.118C93.5558 766.188 91.1437 767.504 87.6351 768.82C83.688 770.355 78.6445 769.478 74.9167 767.943C70.7503 766.188 67.6803 763.776 65.2681 760.048C61.5403 754.347 61.1017 747.549 62.856 741.19C64.1717 736.146 68.1188 731.98 73.1624 730.664C80.3988 729.349 87.6351 732.857 90.7051 739.436Z" fill="white"/>
<path d="M176.226 489.89C179.077 490.548 181.489 491.863 183.462 493.837C185.874 495.372 187.629 497.346 188.944 499.977C190.479 502.389 191.356 505.021 191.576 508.091C192.234 510.941 192.014 513.792 191.137 516.643C190.041 520.37 188.286 523.44 185.655 526.072C182.366 528.923 179.954 530.677 175.568 531.993C167.893 533.966 159.999 531.773 154.297 526.291C152.105 524.318 150.789 522.125 149.912 519.493C148.596 516.862 147.938 514.231 148.157 511.161C148.377 509.187 148.596 507.433 148.815 505.459C149.473 502.609 150.789 500.196 152.543 498.223C153.42 496.688 154.736 495.372 156.49 494.276C158.464 492.521 160.876 491.206 163.727 490.548C164.165 490.328 164.384 490.329 164.823 490.109C168.551 488.794 172.498 488.794 176.226 489.89Z" fill="white"/>
<path d="M183.243 571.683C184.12 571.683 184.778 571.902 185.655 571.902C186.751 572.121 187.848 572.56 188.725 572.999C188.944 572.999 189.383 572.998 189.602 573.218C193.111 574.095 196.181 576.288 198.374 579.138C199.47 580.235 200.128 581.331 200.566 582.866C201.224 584.182 201.663 585.498 201.663 587.033C202.101 588.568 202.101 590.103 201.663 591.418C201.663 593.611 201.005 595.804 199.689 597.778C199.251 598.435 198.812 599.093 198.374 599.751C197.496 601.067 196.4 602.383 195.304 603.479C193.549 605.233 192.014 606.11 190.479 606.988C190.479 606.988 190.479 606.988 190.699 606.988C190.479 606.988 190.479 607.207 190.26 607.207C188.725 607.865 187.19 608.523 185.655 609.18C183.024 610.058 180.611 610.058 177.98 609.619C176.226 609.619 174.691 609.18 173.156 608.303C170.744 607.426 168.77 606.11 167.016 604.356C164.384 601.725 162.63 598.655 161.534 594.927C159.56 588.568 161.753 581.331 166.358 576.726C168.77 574.314 171.402 572.779 174.691 571.902C177.322 571.244 180.173 571.025 183.243 571.683Z" fill="white"/>
<path d="M46.6291 491.644C48.3833 492.521 49.699 493.618 50.7955 494.934C53.8654 498.442 55.839 502.17 56.4968 506.994C57.5933 515.546 53.2076 524.537 45.5326 528.484C39.612 533.747 31.937 536.817 23.8235 536.817C17.9028 536.817 11.5436 534.185 7.37716 530.019C5.84216 528.484 4.52647 526.51 3.43005 524.537C2.33363 522.783 1.45648 520.59 0.798626 518.616C-1.39422 510.284 1.01791 501.731 6.93859 495.591C11.7628 490.548 18.1221 488.794 24.4813 487.039C31.937 484.408 40.7084 486.381 46.6291 491.644Z" fill="white"/>
<path d="M144.43 790.09C146.842 791.406 148.815 793.16 150.35 795.572C152.105 797.546 153.42 799.958 154.078 802.809C154.298 804.563 154.517 806.536 154.736 808.291C154.736 812.019 153.859 815.527 151.885 818.816C151.885 819.036 151.885 819.036 151.666 819.255C150.57 820.79 149.473 822.106 148.377 823.641C146.842 824.737 145.526 825.833 143.991 826.93C142.237 827.588 140.483 828.465 138.948 829.123C136.535 829.561 133.904 830 131.492 830C130.834 830 130.176 830 129.518 830C128.422 830 127.106 829.781 126.01 829.561C124.036 829.561 122.282 829.123 120.747 828.026C119.87 827.588 118.773 827.149 117.896 826.711C114.826 824.956 112.195 822.325 110.441 819.255C109.564 817.501 108.686 815.746 108.248 813.992V813.773C107.809 812.457 107.809 810.922 107.59 809.606C107.59 809.387 107.59 808.949 107.371 808.729C107.59 806.975 107.809 805.221 108.029 803.466C108.248 803.247 108.248 802.809 108.467 802.589C108.906 801.493 109.344 800.397 109.783 799.519C109.783 799.3 110.002 799.081 110.002 798.862C110.441 797.984 111.098 797.327 111.537 796.449C111.756 796.23 111.756 796.011 111.976 796.011C111.976 795.792 112.195 795.792 112.195 795.572C114.826 792.283 118.335 789.871 122.501 788.994C123.598 788.774 124.694 788.555 126.01 788.336C126.229 788.336 126.668 788.117 126.887 788.117C133.027 786.362 139.386 787.02 144.43 790.09Z" fill="white"/>
<path d="M197.935 667.949C203.856 669.922 209.338 672.992 212.627 678.255C213.504 679.351 214.381 680.448 215.039 681.544C215.697 683.298 216.574 685.053 217.232 686.807C217.451 688.781 217.671 690.754 218.109 692.728C218.329 695.798 217.671 698.648 216.136 701.28C215.697 703.253 214.601 704.788 213.285 706.104C212.408 707.858 211.092 709.174 209.338 710.051C208.022 711.367 206.268 712.463 204.514 712.902C202.759 713.779 200.786 714.437 198.812 714.656C197.058 715.533 195.304 715.972 193.33 715.972C192.014 716.41 190.699 716.41 189.383 716.41C187.19 716.191 184.997 715.753 182.804 715.533C179.515 714.875 176.884 713.34 174.472 711.148C172.717 710.051 171.182 708.516 170.086 706.762C167.893 704.35 166.358 701.499 165.7 698.429C164.823 694.043 164.823 689.658 165.7 685.272C166.358 681.983 167.893 679.351 170.086 676.939C171.84 674.308 174.033 672.115 176.884 670.58C183.243 666.852 191.137 665.756 197.935 667.949Z" fill="white"/>
<path d="M118.554 439.016C122.721 440.112 126.668 442.525 129.738 445.375C134.562 449.761 136.755 456.559 136.974 462.918C137.193 470.374 134.123 477.829 128.861 483.311C125.791 486.381 121.186 489.451 117.019 490.548C111.756 491.864 107.151 491.425 102.108 490.329C97.0644 489.232 91.1437 484.627 88.7315 480.022C88.0737 478.268 87.1965 476.514 86.5387 474.759C85.6616 471.689 85.4423 468.839 86.1001 465.769C86.3194 463.795 86.9773 461.822 87.6351 459.848C87.8544 456.559 88.7315 453.05 90.4858 450.2C91.1437 449.103 92.0208 448.007 92.8979 446.91C93.1172 446.691 93.1172 446.472 93.3365 446.472C93.7751 445.814 94.4329 445.375 94.8715 444.717C94.6522 444.937 94.6522 445.156 94.4329 445.156C97.2836 442.086 101.011 439.674 105.397 438.797C110.002 437.7 113.511 437.7 118.554 439.016Z" fill="white"/>
</g>
</svg>
