<svg width="415" height="312" viewBox="0 0 415 312" fill="none" xmlns="http://www.w3.org/2000/svg">
<g opacity="0.7">
<path d="M310.042 106.746C298.595 117.832 281.249 126.74 271.288 137.323C262.528 146.701 257.203 157.669 251.752 168.468C250.277 171.428 248.91 174.378 247.543 177.329C235.261 204.062 223.273 232.771 196.499 250.936C172.704 267.003 139.326 271.948 110.912 264.411C82.4986 256.873 59.7686 237.514 49.9132 214.128C42.1595 195.643 42.3623 174.411 51.814 156.046C61.3659 137.58 80.4175 122.322 103.296 116.357C129.915 109.404 161.257 114.3 183.233 99.8608C197.463 90.4258 202.693 76.0975 213.43 64.4402C219.887 57.3717 228.182 51.2236 238.068 48.0221C259.759 41.0753 292.014 47.5247 308.614 59.9006C315.911 65.3175 320.605 73.3452 321.274 81.6587C322.312 91.5765 317.368 99.596 310.042 106.746Z" fill="url(#paint0_linear_203_266)"/>
<path opacity="0.56" d="M337.364 270.498C321.37 275.155 308.21 257.338 295.556 251.062C281.992 244.381 269.844 241.142 258.203 241.04C235.122 240.939 219.027 259.16 205.664 275.661C190.784 293.983 174.688 310.585 149.178 311.193C143.611 311.294 135.816 310.281 130.755 304.613C121.846 294.692 125.389 280.824 128.123 269.385C136.423 233.853 143.813 178.379 100.284 162.587C93.6033 160.158 86.7197 157.627 82.4681 152.161C61.6148 125.132 89.048 105.291 113.039 96.687C137.031 88.0824 163.958 82.8185 186.127 68.7476C209.714 53.7656 220.039 22.6881 247.472 13.0713C255.368 10.3381 262.96 11.0467 268.326 14.9947C275.108 19.9549 278.347 28.7619 280.169 34.8357C288.268 61.7627 266.2 88.3861 275.918 115.111C282.194 132.421 298.492 144.265 313.575 153.679C338.579 169.167 358.015 186.073 358.521 217.96C358.724 233.752 354.776 249.341 347.183 261.995C344.754 266.044 342.122 268.676 338.984 269.891C338.478 270.093 337.87 270.296 337.364 270.498Z" fill="#7FACD6"/>
<path d="M134.095 107.417C133.69 90.2083 134.399 72.0882 140.877 55.7902C146.85 40.9095 161.731 23.3968 179.142 22.4857C190.379 21.8783 195.946 35.7468 202.627 42.4279C245.245 85.4505 311.044 57.5111 359.938 84.2357C368.543 88.8923 376.236 96.3833 378.767 106.101C381.399 116.224 377.957 126.955 373.199 136.268C361.963 158.133 344.45 174.431 326.634 190.831C310.943 205.205 283.814 220.187 281.992 243.976C281.283 253.593 288.673 261.792 290.697 270.802C295.86 294.388 270.35 309.674 250.205 311.496C226.821 313.622 202.02 304.208 186.127 286.391C165.375 263.108 159.2 211.988 121.846 208.04C118.202 207.635 114.153 207.837 111.217 205.711C106.966 202.674 106.662 196.094 108.99 191.438C112.432 184.352 118.506 179.29 122.859 172.812C135.31 153.882 134.601 130.498 134.095 107.417Z" fill="url(#paint1_linear_203_266)"/>
<path d="M77.6512 82.848C68.5328 72.6589 51.878 74.6019 40.3215 78.6402C22.8891 84.6714 -1.3805 99.0399 7.88964 121.214C9.04924 123.934 10.6523 126.562 12.5816 128.754C17.6914 134.729 25.2476 138.214 32.9417 139.222C39.5078 140.137 46.883 139.592 52.8769 136.374C56.2945 134.562 58.9431 131.707 59.9618 127.893C60.4582 126.035 60.6155 123.876 60.5251 121.861C60.3562 120.14 59.0727 117.492 60.4231 115.967C62.6738 113.424 67.1726 114.626 70.1595 113.643C74.1834 112.307 78.0123 109.349 80.2569 105.652C84.7201 98.3573 83.4196 89.1038 77.6512 82.848Z" fill="url(#paint2_linear_203_266)"/>
<path d="M349.714 28.8631C349.208 28.2558 348.702 27.7496 348.196 27.2435C347.285 26.4336 346.374 25.6238 345.867 24.5103C344.956 22.3845 346.07 20.0562 345.665 17.8291C345.26 15.3996 343.843 12.9701 342.122 11.148C333.72 2.7459 319.75 6.59263 310.64 11.6541C303.452 15.6021 299.504 22.0808 301.023 30.2804C302.339 37.164 306.894 44.0476 313.069 47.4894C313.373 47.6919 313.676 47.7931 313.98 47.9956C315.701 48.9066 317.523 49.7164 318.94 51.1337C320.56 52.8546 321.775 55.1828 323.597 56.8025C325.115 58.2197 327.241 59.232 329.165 59.7382C334.024 60.9529 339.085 59.3333 343.337 57.2074C348.904 54.4742 353.156 49.2103 354.067 43.0353C354.776 37.9738 352.954 32.7099 349.714 28.8631Z" fill="url(#paint3_linear_203_266)"/>
<path d="M369.252 12.8689C369.15 12.5652 368.948 12.3627 368.745 12.1603C368.442 11.6541 368.037 11.148 367.632 10.7431C366.012 9.02216 363.583 8.00986 361.254 7.90863C361.254 7.90863 361.254 7.90863 361.153 7.90863C361.052 7.90863 361.052 7.90863 360.951 7.90863H360.85C360.04 7.90863 359.129 8.00986 358.42 8.11109C356.699 8.516 354.978 9.42707 353.763 10.6418C351.536 12.9701 350.524 16.2095 351.233 19.3476C351.435 20.4611 351.941 21.4734 352.549 22.3845C352.549 22.3845 352.549 22.3845 352.549 22.4857C354.472 26.13 358.926 28.1546 362.975 27.1423C367.126 26.13 370.264 22.4857 370.365 18.1328C370.568 16.3107 370.163 14.3873 369.252 12.8689Z" fill="url(#paint4_linear_203_266)"/>
<path d="M347.184 0.113914C342.426 1.32867 344.248 8.71843 349.006 7.50367C353.763 6.39015 351.941 -0.999612 347.184 0.113914Z" fill="url(#paint5_linear_203_266)"/>
<path d="M397.798 203.889C401.153 203.889 403.872 201.17 403.872 197.815C403.872 194.461 401.153 191.741 397.798 191.741C394.444 191.741 391.725 194.461 391.725 197.815C391.725 201.17 394.444 203.889 397.798 203.889Z" stroke="url(#paint6_linear_203_266)" stroke-width="1.2857" stroke-miterlimit="10"/>
<path d="M408.933 189.312C411.505 189.312 413.59 187.227 413.59 184.655C413.59 182.084 411.505 179.999 408.933 179.999C406.362 179.999 404.277 182.084 404.277 184.655C404.277 187.227 406.362 189.312 408.933 189.312Z" stroke="url(#paint7_linear_203_266)" stroke-width="0.985" stroke-miterlimit="10"/>
</g>
<defs>
<linearGradient id="paint0_linear_203_266" x1="-22.6063" y1="333.922" x2="244.803" y2="-16.1393" gradientUnits="userSpaceOnUse">
<stop stop-color="#7FACD6"/>
<stop offset="1" stop-color="#E9B7D4"/>
</linearGradient>
<linearGradient id="paint1_linear_203_266" x1="128.648" y1="134.603" x2="395.679" y2="236.083" gradientUnits="userSpaceOnUse">
<stop offset="2.54313e-07" stop-color="#E9B7D4"/>
<stop offset="1" stop-color="#7FACD6"/>
</linearGradient>
<linearGradient id="paint2_linear_203_266" x1="24.4625" y1="83.9961" x2="64.484" y2="126.162" gradientUnits="userSpaceOnUse">
<stop offset="2.54313e-07" stop-color="#E9B7D4"/>
<stop offset="1" stop-color="#7FACD6"/>
</linearGradient>
<linearGradient id="paint3_linear_203_266" x1="314.171" y1="49.1529" x2="345.249" y2="13.8833" gradientUnits="userSpaceOnUse">
<stop stop-color="#7FACD6"/>
<stop offset="1" stop-color="#E9B7D4"/>
</linearGradient>
<linearGradient id="paint4_linear_203_266" x1="354.388" y1="24.8054" x2="367.227" y2="10.2351" gradientUnits="userSpaceOnUse">
<stop stop-color="#7FACD6"/>
<stop offset="1" stop-color="#E9B7D4"/>
</linearGradient>
<linearGradient id="paint5_linear_203_266" x1="345.567" y1="6.70432" x2="350.569" y2="1.02797" gradientUnits="userSpaceOnUse">
<stop stop-color="#7FACD6"/>
<stop offset="1" stop-color="#E9B7D4"/>
</linearGradient>
<linearGradient id="paint6_linear_203_266" x1="393.789" y1="203.133" x2="401.935" y2="192.43" gradientUnits="userSpaceOnUse">
<stop stop-color="#7FACD6"/>
<stop offset="1" stop-color="#E9B7D4"/>
</linearGradient>
<linearGradient id="paint7_linear_203_266" x1="405.877" y1="188.721" x2="412.118" y2="180.521" gradientUnits="userSpaceOnUse">
<stop stop-color="#7FACD6"/>
<stop offset="1" stop-color="#E9B7D4"/>
</linearGradient>
</defs>
</svg>
