<svg width="586" height="881" viewBox="0 0 586 881" fill="none" xmlns="http://www.w3.org/2000/svg">
<path fill-rule="evenodd" clip-rule="evenodd" d="M309.822 279.957C409.075 272.217 523.944 250.613 590.109 324.908C658.298 401.477 632.382 516.573 609.505 616.468C586.646 716.282 559.924 831.241 465.189 870.375C373.38 908.3 281.039 836.165 194.152 788.045C116.512 745.048 30.8915 702.612 7.71492 617.021C-16.3293 528.225 18.0953 433.26 79.5239 364.724C136.934 300.671 224.008 286.649 309.822 279.957Z" fill="#935E43" fill-opacity="0.07"/>
<path fill-rule="evenodd" clip-rule="evenodd" d="M432.091 297.358C475.089 243.243 560.749 255.113 620.29 219.373C675.641 186.148 699.587 102.969 764.398 97.8886C829.303 92.801 882.245 149.596 928.718 195.196C970.713 236.403 993.197 289.223 1014.77 343.563C1038.8 404.077 1073.2 464.553 1060.88 528.042C1047.58 596.566 1009.21 666.131 946.132 697.184C884.85 727.351 813.727 690.274 745.249 683.419C682.101 677.097 618.886 685.086 561.13 658.643C490.515 626.312 409.139 590.134 383.262 517.686C357.162 444.611 384.059 357.81 432.091 297.358Z" fill="#C1A7FA" fill-opacity="0.3"/>
</svg>
