<svg width="1440" height="44" viewBox="0 0 1440 44" fill="none" xmlns="http://www.w3.org/2000/svg">
<path d="M1440 4.57242L1405.11 4.24156C1370.07 3.93827 1300.29 3.27655 1230.36 1.89796C1160.43 0.519376 1090.65 -1.57608 1020.72 1.89796C950.792 5.39957 881.015 14.4982 810.778 14.7188C740.695 14.967 670.305 6.30944 600.222 3.82798C529.985 1.34653 460.208 5.04115 390.277 8.62547C320.347 12.2098 250.569 15.6838 180.639 17.476C110.708 19.2682 40.9305 19.3784 5.88867 19.406L-29 19.4612V44H5.88867C40.9305 44 110.708 44 180.639 44C250.569 44 320.347 44 390.277 44C460.208 44 529.985 44 600.222 44C670.305 44 740.695 44 810.778 44C881.015 44 950.792 44 1020.72 44C1090.65 44 1160.43 44 1230.36 44C1300.29 44 1370.07 44 1405.11 44H1440V4.57242Z" fill="#F2F2FA"/>
</svg>
