<svg width="1440" height="45" viewBox="0 0 1440 45" fill="none" xmlns="http://www.w3.org/2000/svg">
<path d="M-29 4.67634L5.88875 4.33796C40.9305 4.02778 110.708 3.35102 180.639 1.9411C250.569 0.53118 320.347 -1.6119 390.277 1.9411C460.208 5.52229 529.985 14.8277 600.222 15.0533C670.305 15.3071 740.695 6.45284 810.778 3.91498C881.015 1.37713 950.792 5.15572 1020.72 8.8215C1090.65 12.4873 1160.43 16.0403 1230.36 17.8732C1300.29 19.7061 1370.07 19.8189 1405.11 19.8471L1440 19.9035V45H1405.11C1370.07 45 1300.29 45 1230.36 45C1160.43 45 1090.65 45 1020.72 45C950.792 45 881.015 45 810.778 45C740.695 45 670.305 45 600.222 45C529.985 45 460.208 45 390.277 45C320.347 45 250.569 45 180.639 45C110.708 45 40.9305 45 5.88875 45H-29V4.67634Z" fill="#F2F2FA"/>
</svg>
